M48
; DRILL file {KiCad 9.0.5-1.fc42} date 2025-11-09T16:45:22+0800
; FORMAT={-:-/ absolute / metric / decimal}
; #@! TF.CreationDate,2025-11-09T16:45:22+08:00
; #@! TF.GenerationSoftware,Kicad,Pcbnew,9.0.5-1.fc42
; #@! TF.FileFunction,Plated,1,2,PTH
FMAT,2
METRIC
; #@! TA.AperFunction,Plated,PTH,ViaDrill
T1C0.300
; #@! TA.AperFunction,Plated,PTH,ComponentDrill
T2C0.800
%
G90
G05
T1
X103.087Y-67.168
X103.687Y-66.06
X104.14Y-109.22
X104.14Y-114.3
X104.14Y-119.38
X104.14Y-127.0
X104.14Y-132.08
X104.869Y-78.494
X105.879Y-98.869
X106.68Y-53.34
X106.68Y-129.54
X106.68Y-134.62
X107.64Y-78.661
X107.64Y-93.201
X109.22Y-73.66
X109.22Y-127.0
X109.22Y-132.08
X111.76Y-53.34
X111.76Y-129.54
X111.76Y-134.62
X114.3Y-127.0
X114.3Y-132.08
X116.84Y-71.12
X116.84Y-83.82
X116.84Y-129.54
X116.84Y-134.62
X117.241Y-73.412
X118.145Y-76.088
X119.38Y-132.08
X121.92Y-83.82
X121.92Y-134.62
X123.396Y-55.076
X124.46Y-124.46
X125.474Y-136.266
X125.502Y-57.182
X125.628Y-138.991
X126.316Y-57.996
X127.0Y-60.96
X127.0Y-66.04
X127.0Y-68.58
X127.0Y-73.66
X127.0Y-127.0
X128.312Y-74.985
X129.54Y-124.46
X129.54Y-129.54
X130.964Y-138.991
X132.08Y-127.0
X132.08Y-132.08
X132.112Y-69.631
X132.319Y-72.23
X133.046Y-89.821
X134.62Y-58.42
X134.62Y-66.04
X134.62Y-68.58
X134.62Y-71.12
X134.62Y-124.46
X134.62Y-129.54
X135.15Y-77.327
X136.022Y-138.994
X137.114Y-104.14
X137.16Y-58.42
X137.16Y-81.28
X137.16Y-88.9
X137.16Y-93.98
X137.16Y-99.06
X138.036Y-139.034
X138.774Y-107.627
X138.915Y-102.709
X139.7Y-66.04
X139.7Y-68.58
X139.7Y-73.66
X139.7Y-78.74
X139.7Y-91.44
X139.7Y-119.38
X139.7Y-124.46
X139.7Y-129.54
X142.24Y-99.06
X142.24Y-106.68
X142.24Y-109.22
X142.24Y-114.3
X142.24Y-121.92
X142.24Y-127.0
X142.24Y-132.08
X144.493Y-124.46
X144.493Y-139.103
X144.577Y-77.326
X144.78Y-73.66
X144.78Y-88.9
X144.78Y-109.22
X144.78Y-114.3
X144.78Y-119.38
X145.252Y-84.292
X145.46Y-139.005
X145.701Y-77.099
X146.857Y-84.665
X147.32Y-60.96
X147.32Y-73.66
X147.32Y-88.9
X147.32Y-106.68
X147.32Y-111.76
X147.32Y-124.46
X147.32Y-129.54
X148.211Y-139.088
X148.639Y-75.891
X148.798Y-57.729
X149.621Y-119.403
X149.672Y-136.553
X149.86Y-81.888
X149.86Y-91.44
X149.86Y-106.68
X149.86Y-111.76
X149.86Y-127.0
X149.86Y-132.08
X149.86Y-139.4
X152.4Y-60.96
X152.4Y-88.9
X152.4Y-106.68
X152.4Y-111.76
X152.4Y-124.46
X152.641Y-130.983
X153.827Y-99.44
X154.645Y-133.037
X154.94Y-75.291
X154.94Y-91.44
X155.001Y-88.299
X155.01Y-118.574
X155.406Y-133.798
X157.48Y-58.42
X157.48Y-88.9
X157.48Y-127.0
X158.08Y-104.14
X160.02Y-60.96
X160.02Y-73.66
X160.02Y-91.44
X160.02Y-96.802
X160.02Y-106.68
X160.02Y-109.22
X160.02Y-121.92
X161.122Y-80.937
X162.56Y-58.42
X162.56Y-66.04
X162.56Y-92.084
X162.56Y-104.14
X162.56Y-111.76
X163.408Y-119.252
X163.946Y-115.708
X164.335Y-96.007
X164.877Y-139.168
X165.1Y-68.58
X165.1Y-106.68
X165.1Y-111.76
X165.459Y-125.004
X167.64Y-66.04
X167.64Y-81.28
X167.64Y-104.14
X167.64Y-106.68
X167.64Y-111.76
X167.64Y-119.38
X167.64Y-127.0
X167.64Y-137.292
X167.64Y-138.991
X167.712Y-132.008
X169.736Y-128.064
X170.18Y-53.34
X170.18Y-106.68
X170.18Y-111.76
X170.18Y-119.38
X170.924Y-138.991
X172.094Y-130.983
X172.72Y-55.88
X172.72Y-60.96
X172.72Y-66.04
X172.72Y-71.12
X172.72Y-81.28
X172.72Y-104.14
X172.72Y-111.76
X172.961Y-137.994
X173.654Y-133.903
X174.845Y-80.535
X175.26Y-53.34
X175.26Y-63.5
X175.26Y-68.58
X175.26Y-73.66
X175.26Y-104.14
X175.26Y-111.76
X175.26Y-121.92
X175.26Y-127.0
X175.26Y-132.08
X175.26Y-137.523
X175.65Y-92.249
X175.941Y-136.825
X177.8Y-55.88
X177.8Y-60.96
X177.8Y-66.04
X177.8Y-71.12
X177.8Y-90.11
X177.8Y-106.68
X177.8Y-111.76
X180.03Y-77.099
X180.34Y-53.34
X180.34Y-63.5
X180.34Y-106.68
X180.34Y-111.76
X180.34Y-121.92
X180.34Y-129.54
X181.727Y-98.264
X182.414Y-99.526
X182.88Y-55.88
X184.969Y-125.932
X184.969Y-137.65
X185.42Y-53.34
X185.42Y-73.66
X185.42Y-88.9
X185.42Y-93.98
X185.42Y-99.06
X187.625Y-119.305
X187.697Y-121.839
X187.96Y-55.88
X187.96Y-68.58
X187.96Y-78.74
X187.96Y-83.82
X187.96Y-96.52
X187.96Y-129.54
X189.568Y-82.27
X190.5Y-53.34
X191.358Y-104.998
X192.196Y-127.389
X193.014Y-130.431
X193.04Y-55.88
X193.839Y-128.801
X194.04Y-76.2
X194.259Y-125.144
X194.386Y-64.102
X194.663Y-130.473
X194.858Y-109.649
X195.062Y-85.333
X195.177Y-78.715
X195.25Y-91.11
X195.934Y-138.643
X196.54Y-124.46
X196.611Y-136.851
X198.12Y-91.44
X198.12Y-104.14
X198.12Y-111.76
X198.12Y-119.38
X198.12Y-127.0
T2
X106.68Y-58.42
X106.68Y-60.96
X106.68Y-63.5
X106.68Y-66.04
X106.68Y-68.58
X106.68Y-71.12
X106.68Y-73.66
X106.68Y-76.2
X106.68Y-86.36
X106.68Y-91.44
X106.68Y-96.52
X106.68Y-101.6
X106.68Y-106.68
X106.68Y-111.76
X106.68Y-116.84
X106.68Y-121.92
X114.3Y-58.42
X114.3Y-60.96
X114.3Y-63.5
X114.3Y-66.04
X114.3Y-68.58
X114.3Y-71.12
X114.3Y-73.66
X114.3Y-76.2
X116.84Y-86.36
X116.84Y-91.44
X116.84Y-96.52
X116.84Y-101.6
X116.84Y-106.68
X116.84Y-111.76
X116.84Y-116.84
X116.84Y-121.92
X121.92Y-58.42
X121.92Y-60.96
X121.92Y-63.5
X121.92Y-66.04
X121.92Y-68.58
X121.92Y-71.12
X121.92Y-73.66
X121.92Y-76.2
X121.92Y-86.36
X121.92Y-91.44
X121.92Y-96.52
X121.92Y-101.6
X121.92Y-106.68
X121.92Y-111.76
X121.92Y-116.84
X121.92Y-121.92
X124.46Y-132.08
X126.96Y-132.08
X129.54Y-58.42
X129.54Y-60.96
X129.54Y-63.5
X129.54Y-66.04
X129.54Y-68.58
X129.54Y-71.12
X129.54Y-73.66
X129.54Y-76.2
X132.08Y-86.36
X132.08Y-91.44
X132.08Y-96.52
X132.08Y-101.6
X132.08Y-106.68
X132.08Y-111.76
X132.08Y-116.84
X132.08Y-121.92
X142.24Y-101.6
X142.24Y-116.84
X144.78Y-55.88
X144.78Y-63.5
X144.78Y-71.12
X144.78Y-78.74
X144.78Y-86.36
X144.78Y-93.98
X144.78Y-101.6
X144.78Y-116.84
X147.32Y-55.88
X147.32Y-63.5
X147.32Y-71.12
X147.32Y-78.74
X147.32Y-86.36
X147.32Y-93.98
X147.32Y-101.6
X147.32Y-116.84
X149.86Y-55.88
X149.86Y-63.5
X149.86Y-71.12
X149.86Y-78.74
X149.86Y-86.36
X149.86Y-93.98
X149.86Y-101.6
X149.86Y-116.84
X152.4Y-55.88
X152.4Y-63.5
X152.4Y-71.12
X152.4Y-78.74
X152.4Y-86.36
X152.4Y-93.98
X152.4Y-101.6
X152.4Y-116.84
X154.94Y-55.88
X154.94Y-63.5
X154.94Y-71.12
X154.94Y-78.74
X154.94Y-86.36
X154.94Y-93.98
X154.94Y-101.6
X154.94Y-116.84
X157.48Y-55.88
X157.48Y-63.5
X157.48Y-71.12
X157.48Y-78.74
X157.48Y-86.36
X157.48Y-93.98
X157.48Y-101.6
X157.48Y-116.84
X160.02Y-55.88
X160.02Y-63.5
X160.02Y-71.12
X160.02Y-78.74
X160.02Y-86.36
X160.02Y-93.98
X160.02Y-101.6
X160.02Y-116.84
X162.56Y-55.88
X162.56Y-63.5
X162.56Y-71.12
X162.56Y-78.74
X162.56Y-86.36
X162.56Y-93.98
X162.56Y-101.6
X162.56Y-116.84
X165.1Y-101.6
X165.1Y-116.84
X167.64Y-58.5
X167.64Y-63.5
X167.64Y-73.74
X167.64Y-78.74
X167.64Y-88.98
X167.64Y-93.98
X167.64Y-101.6
X167.64Y-116.84
X170.18Y-101.6
X170.18Y-116.84
X172.72Y-101.6
X172.72Y-116.84
X175.26Y-101.6
X175.26Y-116.84
X177.8Y-101.6
X177.8Y-116.84
X180.34Y-101.6
X180.34Y-116.84
X182.88Y-66.04
X182.88Y-68.58
X182.88Y-71.12
X182.88Y-73.66
X182.88Y-76.2
X182.88Y-78.74
X182.88Y-81.28
X182.88Y-83.82
X182.88Y-86.36
X182.88Y-88.9
X182.92Y-124.46
X185.42Y-60.96
X185.42Y-111.76
X185.42Y-116.76
X185.42Y-124.46
X190.42Y-60.96
X190.5Y-66.04
X190.5Y-68.58
X190.5Y-71.12
X190.5Y-73.66
X190.5Y-76.2
X190.5Y-78.74
X190.5Y-81.28
X190.5Y-83.82
X190.5Y-86.36
X190.5Y-88.9
X190.58Y-132.08
X193.08Y-132.08
M30
