%TF.GenerationSoftware,KiCad,Pcbnew,9.0.5-1.fc42*%
%TF.CreationDate,2025-11-09T16:45:22+08:00*%
%TF.ProjectId,XTra-RAM,58547261-2d52-4414-9d2e-6b696361645f,rev?*%
%TF.SameCoordinates,Original*%
%TF.FileFunction,Drillmap*%
%TF.FilePolarity,Positive*%
%FSLAX45Y45*%
G04 Gerber Fmt 4.5, Leading zero omitted, Abs format (unit mm)*
G04 Created by KiCad (PCBNEW 9.0.5-1.fc42) date 2025-11-09 16:45:22*
%MOMM*%
%LPD*%
G01*
G04 APERTURE LIST*
%ADD10C,0.050000*%
%ADD11C,0.200000*%
%ADD12C,0.100000*%
G04 APERTURE END LIST*
D10*
X11721877Y-13971671D02*
G75*
G02*
X11921669Y-14171671I-217J-200009D01*
G01*
X12021663Y-14986000D02*
G75*
G02*
X11921660Y-14886000I-3J100000D01*
G01*
X19866000Y-5080000D02*
G75*
G02*
X20066000Y-5280000I0J-200000D01*
G01*
X11921663Y-14171671D02*
X11921663Y-14886000D01*
X19866000Y-5080000D02*
X10360000Y-5080000D01*
X11721877Y-13971671D02*
X10359786Y-13970214D01*
X20066000Y-14886000D02*
G75*
G02*
X19966000Y-14986000I-100000J0D01*
G01*
X10359786Y-13970214D02*
G75*
G02*
X10159996Y-13770214I214J200004D01*
G01*
X20066000Y-14886000D02*
X20066000Y-5280000D01*
X10160000Y-5280000D02*
X10160000Y-13770214D01*
X10160000Y-5280000D02*
G75*
G02*
X10360000Y-5080000I200000J0D01*
G01*
X12021663Y-14986000D02*
X19966000Y-14986000D01*
D11*
D12*
X10293720Y-6701840D02*
X10323720Y-6731840D01*
X10323720Y-6701840D02*
X10293720Y-6731840D01*
X10353720Y-6590980D02*
X10383720Y-6620980D01*
X10383720Y-6590980D02*
X10353720Y-6620980D01*
X10399000Y-10907000D02*
X10429000Y-10937000D01*
X10429000Y-10907000D02*
X10399000Y-10937000D01*
X10399000Y-11415000D02*
X10429000Y-11445000D01*
X10429000Y-11415000D02*
X10399000Y-11445000D01*
X10399000Y-11923000D02*
X10429000Y-11953000D01*
X10429000Y-11923000D02*
X10399000Y-11953000D01*
X10399000Y-12685000D02*
X10429000Y-12715000D01*
X10429000Y-12685000D02*
X10399000Y-12715000D01*
X10399000Y-13193000D02*
X10429000Y-13223000D01*
X10429000Y-13193000D02*
X10399000Y-13223000D01*
X10471920Y-7834400D02*
X10501920Y-7864400D01*
X10501920Y-7834400D02*
X10471920Y-7864400D01*
X10572930Y-9871870D02*
X10602930Y-9901870D01*
X10602930Y-9871870D02*
X10572930Y-9901870D01*
X10653000Y-5319000D02*
X10683000Y-5349000D01*
X10683000Y-5319000D02*
X10653000Y-5349000D01*
X10653000Y-12939000D02*
X10683000Y-12969000D01*
X10683000Y-12939000D02*
X10653000Y-12969000D01*
X10653000Y-13447000D02*
X10683000Y-13477000D01*
X10683000Y-13447000D02*
X10653000Y-13477000D01*
X10748990Y-7851100D02*
X10778990Y-7881100D01*
X10778990Y-7851100D02*
X10748990Y-7881100D01*
X10748990Y-9305090D02*
X10778990Y-9335090D01*
X10778990Y-9305090D02*
X10748990Y-9335090D01*
X10907000Y-7351000D02*
X10937000Y-7381000D01*
X10937000Y-7351000D02*
X10907000Y-7381000D01*
X10907000Y-12685000D02*
X10937000Y-12715000D01*
X10937000Y-12685000D02*
X10907000Y-12715000D01*
X10907000Y-13193000D02*
X10937000Y-13223000D01*
X10937000Y-13193000D02*
X10907000Y-13223000D01*
X11161000Y-5319000D02*
X11191000Y-5349000D01*
X11191000Y-5319000D02*
X11161000Y-5349000D01*
X11161000Y-12939000D02*
X11191000Y-12969000D01*
X11191000Y-12939000D02*
X11161000Y-12969000D01*
X11161000Y-13447000D02*
X11191000Y-13477000D01*
X11191000Y-13447000D02*
X11161000Y-13477000D01*
X11415000Y-12685000D02*
X11445000Y-12715000D01*
X11445000Y-12685000D02*
X11415000Y-12715000D01*
X11415000Y-13193000D02*
X11445000Y-13223000D01*
X11445000Y-13193000D02*
X11415000Y-13223000D01*
X11669000Y-7097000D02*
X11699000Y-7127000D01*
X11699000Y-7097000D02*
X11669000Y-7127000D01*
X11669000Y-8367000D02*
X11699000Y-8397000D01*
X11699000Y-8367000D02*
X11669000Y-8397000D01*
X11669000Y-12939000D02*
X11699000Y-12969000D01*
X11699000Y-12939000D02*
X11669000Y-12969000D01*
X11669000Y-13447000D02*
X11699000Y-13477000D01*
X11699000Y-13447000D02*
X11669000Y-13477000D01*
X11709146Y-7326210D02*
X11739146Y-7356210D01*
X11739146Y-7326210D02*
X11709146Y-7356210D01*
X11799473Y-7593848D02*
X11829473Y-7623848D01*
X11829473Y-7593848D02*
X11799473Y-7623848D01*
X11923000Y-13193000D02*
X11953000Y-13223000D01*
X11953000Y-13193000D02*
X11923000Y-13223000D01*
X12177000Y-8367000D02*
X12207000Y-8397000D01*
X12207000Y-8367000D02*
X12177000Y-8397000D01*
X12177000Y-13447000D02*
X12207000Y-13477000D01*
X12207000Y-13447000D02*
X12177000Y-13477000D01*
X12324630Y-5492620D02*
X12354630Y-5522620D01*
X12354630Y-5492620D02*
X12324630Y-5522620D01*
X12431000Y-12431000D02*
X12461000Y-12461000D01*
X12461000Y-12431000D02*
X12431000Y-12461000D01*
X12532398Y-13611579D02*
X12562398Y-13641579D01*
X12562398Y-13611579D02*
X12532398Y-13641579D01*
X12535180Y-5703180D02*
X12565180Y-5733180D01*
X12565180Y-5703180D02*
X12535180Y-5733180D01*
X12547800Y-13884100D02*
X12577800Y-13914100D01*
X12577800Y-13884100D02*
X12547800Y-13914100D01*
X12616580Y-5784570D02*
X12646580Y-5814570D01*
X12646580Y-5784570D02*
X12616580Y-5814570D01*
X12685000Y-6081000D02*
X12715000Y-6111000D01*
X12715000Y-6081000D02*
X12685000Y-6111000D01*
X12685000Y-6589000D02*
X12715000Y-6619000D01*
X12715000Y-6589000D02*
X12685000Y-6619000D01*
X12685000Y-6843000D02*
X12715000Y-6873000D01*
X12715000Y-6843000D02*
X12685000Y-6873000D01*
X12685000Y-7351000D02*
X12715000Y-7381000D01*
X12715000Y-7351000D02*
X12685000Y-7381000D01*
X12685000Y-12685000D02*
X12715000Y-12715000D01*
X12715000Y-12685000D02*
X12685000Y-12715000D01*
X12816250Y-7483470D02*
X12846250Y-7513470D01*
X12846250Y-7483470D02*
X12816250Y-7513470D01*
X12939000Y-12431000D02*
X12969000Y-12461000D01*
X12969000Y-12431000D02*
X12939000Y-12461000D01*
X12939000Y-12939000D02*
X12969000Y-12969000D01*
X12969000Y-12939000D02*
X12939000Y-12969000D01*
X13081420Y-13884100D02*
X13111420Y-13914100D01*
X13111420Y-13884100D02*
X13081420Y-13914100D01*
X13193000Y-12685000D02*
X13223000Y-12715000D01*
X13223000Y-12685000D02*
X13193000Y-12715000D01*
X13193000Y-13193000D02*
X13223000Y-13223000D01*
X13223000Y-13193000D02*
X13193000Y-13223000D01*
X13196230Y-6948130D02*
X13226230Y-6978130D01*
X13226230Y-6948130D02*
X13196230Y-6978130D01*
X13216940Y-7208040D02*
X13246940Y-7238040D01*
X13246940Y-7208040D02*
X13216940Y-7238040D01*
X13289610Y-8967100D02*
X13319610Y-8997100D01*
X13319610Y-8967100D02*
X13289610Y-8997100D01*
X13447000Y-5827000D02*
X13477000Y-5857000D01*
X13477000Y-5827000D02*
X13447000Y-5857000D01*
X13447000Y-6589000D02*
X13477000Y-6619000D01*
X13477000Y-6589000D02*
X13447000Y-6619000D01*
X13447000Y-6843000D02*
X13477000Y-6873000D01*
X13477000Y-6843000D02*
X13447000Y-6873000D01*
X13447000Y-7097000D02*
X13477000Y-7127000D01*
X13477000Y-7097000D02*
X13447000Y-7127000D01*
X13447000Y-12431000D02*
X13477000Y-12461000D01*
X13477000Y-12431000D02*
X13447000Y-12461000D01*
X13447000Y-12939000D02*
X13477000Y-12969000D01*
X13477000Y-12939000D02*
X13447000Y-12969000D01*
X13500020Y-7717690D02*
X13530020Y-7747690D01*
X13530020Y-7717690D02*
X13500020Y-7747690D01*
X13587200Y-13884420D02*
X13617200Y-13914420D01*
X13617200Y-13884420D02*
X13587200Y-13914420D01*
X13696390Y-10399000D02*
X13726390Y-10429000D01*
X13726390Y-10399000D02*
X13696390Y-10429000D01*
X13701000Y-5827000D02*
X13731000Y-5857000D01*
X13731000Y-5827000D02*
X13701000Y-5857000D01*
X13701000Y-8113000D02*
X13731000Y-8143000D01*
X13731000Y-8113000D02*
X13701000Y-8143000D01*
X13701000Y-8875000D02*
X13731000Y-8905000D01*
X13731000Y-8875000D02*
X13701000Y-8905000D01*
X13701000Y-9383000D02*
X13731000Y-9413000D01*
X13731000Y-9383000D02*
X13701000Y-9413000D01*
X13701000Y-9891000D02*
X13731000Y-9921000D01*
X13731000Y-9891000D02*
X13701000Y-9921000D01*
X13788650Y-13888370D02*
X13818650Y-13918370D01*
X13818650Y-13888370D02*
X13788650Y-13918370D01*
X13862370Y-10747720D02*
X13892370Y-10777720D01*
X13892370Y-10747720D02*
X13862370Y-10777720D01*
X13876500Y-10255940D02*
X13906500Y-10285940D01*
X13906500Y-10255940D02*
X13876500Y-10285940D01*
X13955000Y-6589000D02*
X13985000Y-6619000D01*
X13985000Y-6589000D02*
X13955000Y-6619000D01*
X13955000Y-6843000D02*
X13985000Y-6873000D01*
X13985000Y-6843000D02*
X13955000Y-6873000D01*
X13955000Y-7351000D02*
X13985000Y-7381000D01*
X13985000Y-7351000D02*
X13955000Y-7381000D01*
X13955000Y-7859000D02*
X13985000Y-7889000D01*
X13985000Y-7859000D02*
X13955000Y-7889000D01*
X13955000Y-9129000D02*
X13985000Y-9159000D01*
X13985000Y-9129000D02*
X13955000Y-9159000D01*
X13955000Y-11923000D02*
X13985000Y-11953000D01*
X13985000Y-11923000D02*
X13955000Y-11953000D01*
X13955000Y-12431000D02*
X13985000Y-12461000D01*
X13985000Y-12431000D02*
X13955000Y-12461000D01*
X13955000Y-12939000D02*
X13985000Y-12969000D01*
X13985000Y-12939000D02*
X13955000Y-12969000D01*
X14209000Y-9891000D02*
X14239000Y-9921000D01*
X14239000Y-9891000D02*
X14209000Y-9921000D01*
X14209000Y-10653000D02*
X14239000Y-10683000D01*
X14239000Y-10653000D02*
X14209000Y-10683000D01*
X14209000Y-10907000D02*
X14239000Y-10937000D01*
X14239000Y-10907000D02*
X14209000Y-10937000D01*
X14209000Y-11415000D02*
X14239000Y-11445000D01*
X14239000Y-11415000D02*
X14209000Y-11445000D01*
X14209000Y-12177000D02*
X14239000Y-12207000D01*
X14239000Y-12177000D02*
X14209000Y-12207000D01*
X14209000Y-12685000D02*
X14239000Y-12715000D01*
X14239000Y-12685000D02*
X14209000Y-12715000D01*
X14209000Y-13193000D02*
X14239000Y-13223000D01*
X14239000Y-13193000D02*
X14209000Y-13223000D01*
X14434310Y-12431000D02*
X14464310Y-12461000D01*
X14464310Y-12431000D02*
X14434310Y-12461000D01*
X14434310Y-13895310D02*
X14464310Y-13925310D01*
X14464310Y-13895310D02*
X14434310Y-13925310D01*
X14442680Y-7717610D02*
X14472680Y-7747610D01*
X14472680Y-7717610D02*
X14442680Y-7747610D01*
X14463000Y-7351000D02*
X14493000Y-7381000D01*
X14493000Y-7351000D02*
X14463000Y-7381000D01*
X14463000Y-8875000D02*
X14493000Y-8905000D01*
X14493000Y-8875000D02*
X14463000Y-8905000D01*
X14463000Y-10907000D02*
X14493000Y-10937000D01*
X14493000Y-10907000D02*
X14463000Y-10937000D01*
X14463000Y-11415000D02*
X14493000Y-11445000D01*
X14493000Y-11415000D02*
X14463000Y-11445000D01*
X14463000Y-11923000D02*
X14493000Y-11953000D01*
X14493000Y-11923000D02*
X14463000Y-11953000D01*
X14510220Y-8414220D02*
X14540220Y-8444220D01*
X14540220Y-8414220D02*
X14510220Y-8444220D01*
X14530970Y-13885510D02*
X14560970Y-13915510D01*
X14560970Y-13885510D02*
X14530970Y-13915510D01*
X14555060Y-7694930D02*
X14585060Y-7724930D01*
X14585060Y-7694930D02*
X14555060Y-7724930D01*
X14670700Y-8451520D02*
X14700700Y-8481520D01*
X14700700Y-8451520D02*
X14670700Y-8481520D01*
X14717000Y-6081000D02*
X14747000Y-6111000D01*
X14747000Y-6081000D02*
X14717000Y-6111000D01*
X14717000Y-7351000D02*
X14747000Y-7381000D01*
X14747000Y-7351000D02*
X14717000Y-7381000D01*
X14717000Y-8875000D02*
X14747000Y-8905000D01*
X14747000Y-8875000D02*
X14717000Y-8905000D01*
X14717000Y-10653000D02*
X14747000Y-10683000D01*
X14747000Y-10653000D02*
X14717000Y-10683000D01*
X14717000Y-11161000D02*
X14747000Y-11191000D01*
X14747000Y-11161000D02*
X14717000Y-11191000D01*
X14717000Y-12431000D02*
X14747000Y-12461000D01*
X14747000Y-12431000D02*
X14717000Y-12461000D01*
X14717000Y-12939000D02*
X14747000Y-12969000D01*
X14747000Y-12939000D02*
X14717000Y-12969000D01*
X14806100Y-13893790D02*
X14836100Y-13923790D01*
X14836100Y-13893790D02*
X14806100Y-13923790D01*
X14848900Y-7574140D02*
X14878900Y-7604140D01*
X14878900Y-7574140D02*
X14848900Y-7604140D01*
X14864840Y-5757860D02*
X14894840Y-5787860D01*
X14894840Y-5757860D02*
X14864840Y-5787860D01*
X14947130Y-11925290D02*
X14977130Y-11955290D01*
X14977130Y-11925290D02*
X14947130Y-11955290D01*
X14952180Y-13640260D02*
X14982180Y-13670260D01*
X14982180Y-13640260D02*
X14952180Y-13670260D01*
X14971000Y-8173821D02*
X15001000Y-8203821D01*
X15001000Y-8173821D02*
X14971000Y-8203821D01*
X14971000Y-9129000D02*
X15001000Y-9159000D01*
X15001000Y-9129000D02*
X14971000Y-9159000D01*
X14971000Y-10653000D02*
X15001000Y-10683000D01*
X15001000Y-10653000D02*
X14971000Y-10683000D01*
X14971000Y-11161000D02*
X15001000Y-11191000D01*
X15001000Y-11161000D02*
X14971000Y-11191000D01*
X14971000Y-12685000D02*
X15001000Y-12715000D01*
X15001000Y-12685000D02*
X14971000Y-12715000D01*
X14971000Y-13193000D02*
X15001000Y-13223000D01*
X15001000Y-13193000D02*
X14971000Y-13223000D01*
X14971000Y-13925000D02*
X15001000Y-13955000D01*
X15001000Y-13925000D02*
X14971000Y-13955000D01*
X15225000Y-6081000D02*
X15255000Y-6111000D01*
X15255000Y-6081000D02*
X15225000Y-6111000D01*
X15225000Y-8875000D02*
X15255000Y-8905000D01*
X15255000Y-8875000D02*
X15225000Y-8905000D01*
X15225000Y-10653000D02*
X15255000Y-10683000D01*
X15255000Y-10653000D02*
X15225000Y-10683000D01*
X15225000Y-11161000D02*
X15255000Y-11191000D01*
X15255000Y-11161000D02*
X15225000Y-11191000D01*
X15225000Y-12431000D02*
X15255000Y-12461000D01*
X15255000Y-12431000D02*
X15225000Y-12461000D01*
X15249120Y-13083320D02*
X15279120Y-13113320D01*
X15279120Y-13083320D02*
X15249120Y-13113320D01*
X15367680Y-9928980D02*
X15397680Y-9958980D01*
X15397680Y-9928980D02*
X15367680Y-9958980D01*
X15449460Y-13288660D02*
X15479460Y-13318660D01*
X15479460Y-13288660D02*
X15449460Y-13318660D01*
X15479000Y-7514140D02*
X15509000Y-7544140D01*
X15509000Y-7514140D02*
X15479000Y-7544140D01*
X15479000Y-9129000D02*
X15509000Y-9159000D01*
X15509000Y-9129000D02*
X15479000Y-9159000D01*
X15485110Y-8814890D02*
X15515110Y-8844890D01*
X15515110Y-8814890D02*
X15485110Y-8844890D01*
X15485990Y-11842420D02*
X15515990Y-11872420D01*
X15515990Y-11842420D02*
X15485990Y-11872420D01*
X15525630Y-13364830D02*
X15555630Y-13394830D01*
X15555630Y-13364830D02*
X15525630Y-13394830D01*
X15733000Y-5827000D02*
X15763000Y-5857000D01*
X15763000Y-5827000D02*
X15733000Y-5857000D01*
X15733000Y-8875000D02*
X15763000Y-8905000D01*
X15763000Y-8875000D02*
X15733000Y-8905000D01*
X15733000Y-12685000D02*
X15763000Y-12715000D01*
X15763000Y-12685000D02*
X15733000Y-12715000D01*
X15793000Y-10399000D02*
X15823000Y-10429000D01*
X15823000Y-10399000D02*
X15793000Y-10429000D01*
X15987000Y-6081000D02*
X16017000Y-6111000D01*
X16017000Y-6081000D02*
X15987000Y-6111000D01*
X15987000Y-7351000D02*
X16017000Y-7381000D01*
X16017000Y-7351000D02*
X15987000Y-7381000D01*
X15987000Y-9129000D02*
X16017000Y-9159000D01*
X16017000Y-9129000D02*
X15987000Y-9159000D01*
X15987000Y-9665170D02*
X16017000Y-9695170D01*
X16017000Y-9665170D02*
X15987000Y-9695170D01*
X15987000Y-10653000D02*
X16017000Y-10683000D01*
X16017000Y-10653000D02*
X15987000Y-10683000D01*
X15987000Y-10907000D02*
X16017000Y-10937000D01*
X16017000Y-10907000D02*
X15987000Y-10937000D01*
X15987000Y-12177000D02*
X16017000Y-12207000D01*
X16017000Y-12177000D02*
X15987000Y-12207000D01*
X16097170Y-8078690D02*
X16127170Y-8108690D01*
X16127170Y-8078690D02*
X16097170Y-8108690D01*
X16241000Y-5827000D02*
X16271000Y-5857000D01*
X16271000Y-5827000D02*
X16241000Y-5857000D01*
X16241000Y-6589000D02*
X16271000Y-6619000D01*
X16271000Y-6589000D02*
X16241000Y-6619000D01*
X16241000Y-9193450D02*
X16271000Y-9223450D01*
X16271000Y-9193450D02*
X16241000Y-9223450D01*
X16241000Y-10399000D02*
X16271000Y-10429000D01*
X16271000Y-10399000D02*
X16241000Y-10429000D01*
X16241000Y-11161000D02*
X16271000Y-11191000D01*
X16271000Y-11161000D02*
X16241000Y-11191000D01*
X16325830Y-11910200D02*
X16355830Y-11940200D01*
X16355830Y-11910200D02*
X16325830Y-11940200D01*
X16379560Y-11555790D02*
X16409560Y-11585790D01*
X16409560Y-11555790D02*
X16379560Y-11585790D01*
X16418520Y-9585740D02*
X16448520Y-9615740D01*
X16448520Y-9585740D02*
X16418520Y-9615740D01*
X16472660Y-13901820D02*
X16502660Y-13931820D01*
X16502660Y-13901820D02*
X16472660Y-13931820D01*
X16495000Y-6843000D02*
X16525000Y-6873000D01*
X16525000Y-6843000D02*
X16495000Y-6873000D01*
X16495000Y-10653000D02*
X16525000Y-10683000D01*
X16525000Y-10653000D02*
X16495000Y-10683000D01*
X16495000Y-11161000D02*
X16525000Y-11191000D01*
X16525000Y-11161000D02*
X16495000Y-11191000D01*
X16530927Y-12485404D02*
X16560927Y-12515404D01*
X16560927Y-12485404D02*
X16530927Y-12515404D01*
X16749000Y-6589000D02*
X16779000Y-6619000D01*
X16779000Y-6589000D02*
X16749000Y-6619000D01*
X16749000Y-8113000D02*
X16779000Y-8143000D01*
X16779000Y-8113000D02*
X16749000Y-8143000D01*
X16749000Y-10399000D02*
X16779000Y-10429000D01*
X16779000Y-10399000D02*
X16749000Y-10429000D01*
X16749000Y-10653000D02*
X16779000Y-10683000D01*
X16779000Y-10653000D02*
X16749000Y-10683000D01*
X16749000Y-11161000D02*
X16779000Y-11191000D01*
X16779000Y-11161000D02*
X16749000Y-11191000D01*
X16749000Y-11923000D02*
X16779000Y-11953000D01*
X16779000Y-11923000D02*
X16749000Y-11953000D01*
X16749000Y-12685000D02*
X16779000Y-12715000D01*
X16779000Y-12685000D02*
X16749000Y-12715000D01*
X16749000Y-13714180D02*
X16779000Y-13744180D01*
X16779000Y-13714180D02*
X16749000Y-13744180D01*
X16749000Y-13884100D02*
X16779000Y-13914100D01*
X16779000Y-13884100D02*
X16749000Y-13914100D01*
X16756186Y-13185813D02*
X16786187Y-13215813D01*
X16786187Y-13185813D02*
X16756186Y-13215813D01*
X16958630Y-12791370D02*
X16988630Y-12821370D01*
X16988630Y-12791370D02*
X16958630Y-12821370D01*
X17003000Y-5319000D02*
X17033000Y-5349000D01*
X17033000Y-5319000D02*
X17003000Y-5349000D01*
X17003000Y-10653000D02*
X17033000Y-10683000D01*
X17033000Y-10653000D02*
X17003000Y-10683000D01*
X17003000Y-11161000D02*
X17033000Y-11191000D01*
X17033000Y-11161000D02*
X17003000Y-11191000D01*
X17003000Y-11923000D02*
X17033000Y-11953000D01*
X17033000Y-11923000D02*
X17003000Y-11953000D01*
X17077400Y-13884100D02*
X17107400Y-13914100D01*
X17107400Y-13884100D02*
X17077400Y-13914100D01*
X17194400Y-13083320D02*
X17224400Y-13113320D01*
X17224400Y-13083320D02*
X17194400Y-13113320D01*
X17257000Y-5573000D02*
X17287000Y-5603000D01*
X17287000Y-5573000D02*
X17257000Y-5603000D01*
X17257000Y-6081000D02*
X17287000Y-6111000D01*
X17287000Y-6081000D02*
X17257000Y-6111000D01*
X17257000Y-6589000D02*
X17287000Y-6619000D01*
X17287000Y-6589000D02*
X17257000Y-6619000D01*
X17257000Y-7097000D02*
X17287000Y-7127000D01*
X17287000Y-7097000D02*
X17257000Y-7127000D01*
X17257000Y-8113000D02*
X17287000Y-8143000D01*
X17287000Y-8113000D02*
X17257000Y-8143000D01*
X17257000Y-10399000D02*
X17287000Y-10429000D01*
X17287000Y-10399000D02*
X17257000Y-10429000D01*
X17257000Y-11161000D02*
X17287000Y-11191000D01*
X17287000Y-11161000D02*
X17257000Y-11191000D01*
X17281060Y-13784400D02*
X17311060Y-13814400D01*
X17311060Y-13784400D02*
X17281060Y-13814400D01*
X17350380Y-13375270D02*
X17380380Y-13405270D01*
X17380380Y-13375270D02*
X17350380Y-13405270D01*
X17469528Y-8038524D02*
X17499528Y-8068524D01*
X17499528Y-8038524D02*
X17469528Y-8068524D01*
X17511000Y-5319000D02*
X17541000Y-5349000D01*
X17541000Y-5319000D02*
X17511000Y-5349000D01*
X17511000Y-6335000D02*
X17541000Y-6365000D01*
X17541000Y-6335000D02*
X17511000Y-6365000D01*
X17511000Y-6843000D02*
X17541000Y-6873000D01*
X17541000Y-6843000D02*
X17511000Y-6873000D01*
X17511000Y-7351000D02*
X17541000Y-7381000D01*
X17541000Y-7351000D02*
X17511000Y-7381000D01*
X17511000Y-10399000D02*
X17541000Y-10429000D01*
X17541000Y-10399000D02*
X17511000Y-10429000D01*
X17511000Y-11161000D02*
X17541000Y-11191000D01*
X17541000Y-11161000D02*
X17511000Y-11191000D01*
X17511000Y-12177000D02*
X17541000Y-12207000D01*
X17541000Y-12177000D02*
X17511000Y-12207000D01*
X17511000Y-12685000D02*
X17541000Y-12715000D01*
X17541000Y-12685000D02*
X17511000Y-12715000D01*
X17511000Y-13193000D02*
X17541000Y-13223000D01*
X17541000Y-13193000D02*
X17511000Y-13223000D01*
X17511000Y-13737260D02*
X17541000Y-13767260D01*
X17541000Y-13737260D02*
X17511000Y-13767260D01*
X17550030Y-9209870D02*
X17580030Y-9239870D01*
X17580030Y-9209870D02*
X17550030Y-9239870D01*
X17579110Y-13667520D02*
X17609110Y-13697520D01*
X17609110Y-13667520D02*
X17579110Y-13697520D01*
X17765000Y-5573000D02*
X17795000Y-5603000D01*
X17795000Y-5573000D02*
X17765000Y-5603000D01*
X17765000Y-6081000D02*
X17795000Y-6111000D01*
X17795000Y-6081000D02*
X17765000Y-6111000D01*
X17765000Y-6589000D02*
X17795000Y-6619000D01*
X17795000Y-6589000D02*
X17765000Y-6619000D01*
X17765000Y-7097000D02*
X17795000Y-7127000D01*
X17795000Y-7097000D02*
X17765000Y-7127000D01*
X17765000Y-8996020D02*
X17795000Y-9026020D01*
X17795000Y-8996020D02*
X17765000Y-9026020D01*
X17765000Y-10653000D02*
X17795000Y-10683000D01*
X17795000Y-10653000D02*
X17765000Y-10683000D01*
X17765000Y-11161000D02*
X17795000Y-11191000D01*
X17795000Y-11161000D02*
X17765000Y-11191000D01*
X17988000Y-7694930D02*
X18018000Y-7724930D01*
X18018000Y-7694930D02*
X17988000Y-7724930D01*
X18019000Y-5319000D02*
X18049000Y-5349000D01*
X18049000Y-5319000D02*
X18019000Y-5349000D01*
X18019000Y-6335000D02*
X18049000Y-6365000D01*
X18049000Y-6335000D02*
X18019000Y-6365000D01*
X18019000Y-10653000D02*
X18049000Y-10683000D01*
X18049000Y-10653000D02*
X18019000Y-10683000D01*
X18019000Y-11161000D02*
X18049000Y-11191000D01*
X18049000Y-11161000D02*
X18019000Y-11191000D01*
X18019000Y-12177000D02*
X18049000Y-12207000D01*
X18049000Y-12177000D02*
X18019000Y-12207000D01*
X18019000Y-12939000D02*
X18049000Y-12969000D01*
X18049000Y-12939000D02*
X18019000Y-12969000D01*
X18157697Y-9811374D02*
X18187697Y-9841374D01*
X18187697Y-9811374D02*
X18157697Y-9841374D01*
X18226432Y-9937568D02*
X18256432Y-9967568D01*
X18256432Y-9937568D02*
X18226432Y-9967568D01*
X18273000Y-5573000D02*
X18303000Y-5603000D01*
X18303000Y-5573000D02*
X18273000Y-5603000D01*
X18481890Y-12578250D02*
X18511890Y-12608250D01*
X18511890Y-12578250D02*
X18481890Y-12608250D01*
X18481890Y-13749970D02*
X18511890Y-13779970D01*
X18511890Y-13749970D02*
X18481890Y-13779970D01*
X18527000Y-5319000D02*
X18557000Y-5349000D01*
X18557000Y-5319000D02*
X18527000Y-5349000D01*
X18527000Y-7351000D02*
X18557000Y-7381000D01*
X18557000Y-7351000D02*
X18527000Y-7381000D01*
X18527000Y-8875000D02*
X18557000Y-8905000D01*
X18557000Y-8875000D02*
X18527000Y-8905000D01*
X18527000Y-9383000D02*
X18557000Y-9413000D01*
X18557000Y-9383000D02*
X18527000Y-9413000D01*
X18527000Y-9891000D02*
X18557000Y-9921000D01*
X18557000Y-9891000D02*
X18527000Y-9921000D01*
X18747530Y-11915520D02*
X18777530Y-11945520D01*
X18777530Y-11915520D02*
X18747530Y-11945520D01*
X18754738Y-12168874D02*
X18784738Y-12198874D01*
X18784738Y-12168874D02*
X18754738Y-12198874D01*
X18781000Y-5573000D02*
X18811000Y-5603000D01*
X18811000Y-5573000D02*
X18781000Y-5603000D01*
X18781000Y-6843000D02*
X18811000Y-6873000D01*
X18811000Y-6843000D02*
X18781000Y-6873000D01*
X18781000Y-7859000D02*
X18811000Y-7889000D01*
X18811000Y-7859000D02*
X18781000Y-7889000D01*
X18781000Y-8367000D02*
X18811000Y-8397000D01*
X18811000Y-8367000D02*
X18781000Y-8397000D01*
X18781000Y-9637000D02*
X18811000Y-9667000D01*
X18811000Y-9637000D02*
X18781000Y-9667000D01*
X18781000Y-12939000D02*
X18811000Y-12969000D01*
X18811000Y-12939000D02*
X18781000Y-12969000D01*
X18941830Y-8212000D02*
X18971830Y-8242000D01*
X18971830Y-8212000D02*
X18941830Y-8242000D01*
X19035000Y-5319000D02*
X19065000Y-5349000D01*
X19065000Y-5319000D02*
X19035000Y-5349000D01*
X19120774Y-10484774D02*
X19150774Y-10514774D01*
X19150774Y-10484774D02*
X19120774Y-10514774D01*
X19204610Y-12723930D02*
X19234610Y-12753930D01*
X19234610Y-12723930D02*
X19204610Y-12753930D01*
X19286370Y-13028120D02*
X19316370Y-13058120D01*
X19316370Y-13028120D02*
X19286370Y-13058120D01*
X19289000Y-5573000D02*
X19319000Y-5603000D01*
X19319000Y-5573000D02*
X19289000Y-5603000D01*
X19368927Y-12865074D02*
X19398927Y-12895074D01*
X19398927Y-12865074D02*
X19368927Y-12895074D01*
X19388980Y-7605000D02*
X19418980Y-7635000D01*
X19418980Y-7605000D02*
X19388980Y-7635000D01*
X19410890Y-12499420D02*
X19440890Y-12529420D01*
X19440890Y-12499420D02*
X19410890Y-12529420D01*
X19423577Y-6395189D02*
X19453577Y-6425189D01*
X19453577Y-6395189D02*
X19423577Y-6425189D01*
X19451320Y-13032320D02*
X19481320Y-13062320D01*
X19481320Y-13032320D02*
X19451320Y-13062320D01*
X19470808Y-10949887D02*
X19500808Y-10979887D01*
X19500808Y-10949887D02*
X19470808Y-10979887D01*
X19491214Y-8518254D02*
X19521214Y-8548254D01*
X19521214Y-8518254D02*
X19491214Y-8548254D01*
X19502722Y-7856546D02*
X19532722Y-7886546D01*
X19532722Y-7856546D02*
X19502722Y-7886546D01*
X19509980Y-9095980D02*
X19539980Y-9125980D01*
X19539980Y-9095980D02*
X19509980Y-9125980D01*
X19578450Y-13849340D02*
X19608450Y-13879340D01*
X19608450Y-13849340D02*
X19578450Y-13879340D01*
X19639010Y-12431000D02*
X19669010Y-12461000D01*
X19669010Y-12431000D02*
X19639010Y-12461000D01*
X19646050Y-13670130D02*
X19676050Y-13700130D01*
X19676050Y-13670130D02*
X19646050Y-13700130D01*
X19797000Y-9129000D02*
X19827000Y-9159000D01*
X19827000Y-9129000D02*
X19797000Y-9159000D01*
X19797000Y-10399000D02*
X19827000Y-10429000D01*
X19827000Y-10399000D02*
X19797000Y-10429000D01*
X19797000Y-11161000D02*
X19827000Y-11191000D01*
X19827000Y-11161000D02*
X19797000Y-11191000D01*
X19797000Y-11923000D02*
X19827000Y-11953000D01*
X19827000Y-11923000D02*
X19797000Y-11953000D01*
X19797000Y-12685000D02*
X19827000Y-12715000D01*
X19827000Y-12685000D02*
X19797000Y-12715000D01*
X10708000Y-5842000D02*
G75*
G02*
X10628000Y-5842000I-40000J0D01*
G01*
X10628000Y-5842000D02*
G75*
G02*
X10708000Y-5842000I40000J0D01*
G01*
X10708000Y-6096000D02*
G75*
G02*
X10628000Y-6096000I-40000J0D01*
G01*
X10628000Y-6096000D02*
G75*
G02*
X10708000Y-6096000I40000J0D01*
G01*
X10708000Y-6350000D02*
G75*
G02*
X10628000Y-6350000I-40000J0D01*
G01*
X10628000Y-6350000D02*
G75*
G02*
X10708000Y-6350000I40000J0D01*
G01*
X10708000Y-6604000D02*
G75*
G02*
X10628000Y-6604000I-40000J0D01*
G01*
X10628000Y-6604000D02*
G75*
G02*
X10708000Y-6604000I40000J0D01*
G01*
X10708000Y-6858000D02*
G75*
G02*
X10628000Y-6858000I-40000J0D01*
G01*
X10628000Y-6858000D02*
G75*
G02*
X10708000Y-6858000I40000J0D01*
G01*
X10708000Y-7112000D02*
G75*
G02*
X10628000Y-7112000I-40000J0D01*
G01*
X10628000Y-7112000D02*
G75*
G02*
X10708000Y-7112000I40000J0D01*
G01*
X10708000Y-7366000D02*
G75*
G02*
X10628000Y-7366000I-40000J0D01*
G01*
X10628000Y-7366000D02*
G75*
G02*
X10708000Y-7366000I40000J0D01*
G01*
X10708000Y-7620000D02*
G75*
G02*
X10628000Y-7620000I-40000J0D01*
G01*
X10628000Y-7620000D02*
G75*
G02*
X10708000Y-7620000I40000J0D01*
G01*
X10708000Y-8636000D02*
G75*
G02*
X10628000Y-8636000I-40000J0D01*
G01*
X10628000Y-8636000D02*
G75*
G02*
X10708000Y-8636000I40000J0D01*
G01*
X10708000Y-9144000D02*
G75*
G02*
X10628000Y-9144000I-40000J0D01*
G01*
X10628000Y-9144000D02*
G75*
G02*
X10708000Y-9144000I40000J0D01*
G01*
X10708000Y-9652000D02*
G75*
G02*
X10628000Y-9652000I-40000J0D01*
G01*
X10628000Y-9652000D02*
G75*
G02*
X10708000Y-9652000I40000J0D01*
G01*
X10708000Y-10160000D02*
G75*
G02*
X10628000Y-10160000I-40000J0D01*
G01*
X10628000Y-10160000D02*
G75*
G02*
X10708000Y-10160000I40000J0D01*
G01*
X10708000Y-10668000D02*
G75*
G02*
X10628000Y-10668000I-40000J0D01*
G01*
X10628000Y-10668000D02*
G75*
G02*
X10708000Y-10668000I40000J0D01*
G01*
X10708000Y-11176000D02*
G75*
G02*
X10628000Y-11176000I-40000J0D01*
G01*
X10628000Y-11176000D02*
G75*
G02*
X10708000Y-11176000I40000J0D01*
G01*
X10708000Y-11684000D02*
G75*
G02*
X10628000Y-11684000I-40000J0D01*
G01*
X10628000Y-11684000D02*
G75*
G02*
X10708000Y-11684000I40000J0D01*
G01*
X10708000Y-12192000D02*
G75*
G02*
X10628000Y-12192000I-40000J0D01*
G01*
X10628000Y-12192000D02*
G75*
G02*
X10708000Y-12192000I40000J0D01*
G01*
X11470000Y-5842000D02*
G75*
G02*
X11390000Y-5842000I-40000J0D01*
G01*
X11390000Y-5842000D02*
G75*
G02*
X11470000Y-5842000I40000J0D01*
G01*
X11470000Y-6096000D02*
G75*
G02*
X11390000Y-6096000I-40000J0D01*
G01*
X11390000Y-6096000D02*
G75*
G02*
X11470000Y-6096000I40000J0D01*
G01*
X11470000Y-6350000D02*
G75*
G02*
X11390000Y-6350000I-40000J0D01*
G01*
X11390000Y-6350000D02*
G75*
G02*
X11470000Y-6350000I40000J0D01*
G01*
X11470000Y-6604000D02*
G75*
G02*
X11390000Y-6604000I-40000J0D01*
G01*
X11390000Y-6604000D02*
G75*
G02*
X11470000Y-6604000I40000J0D01*
G01*
X11470000Y-6858000D02*
G75*
G02*
X11390000Y-6858000I-40000J0D01*
G01*
X11390000Y-6858000D02*
G75*
G02*
X11470000Y-6858000I40000J0D01*
G01*
X11470000Y-7112000D02*
G75*
G02*
X11390000Y-7112000I-40000J0D01*
G01*
X11390000Y-7112000D02*
G75*
G02*
X11470000Y-7112000I40000J0D01*
G01*
X11470000Y-7366000D02*
G75*
G02*
X11390000Y-7366000I-40000J0D01*
G01*
X11390000Y-7366000D02*
G75*
G02*
X11470000Y-7366000I40000J0D01*
G01*
X11470000Y-7620000D02*
G75*
G02*
X11390000Y-7620000I-40000J0D01*
G01*
X11390000Y-7620000D02*
G75*
G02*
X11470000Y-7620000I40000J0D01*
G01*
X11724000Y-8636000D02*
G75*
G02*
X11644000Y-8636000I-40000J0D01*
G01*
X11644000Y-8636000D02*
G75*
G02*
X11724000Y-8636000I40000J0D01*
G01*
X11724000Y-9144000D02*
G75*
G02*
X11644000Y-9144000I-40000J0D01*
G01*
X11644000Y-9144000D02*
G75*
G02*
X11724000Y-9144000I40000J0D01*
G01*
X11724000Y-9652000D02*
G75*
G02*
X11644000Y-9652000I-40000J0D01*
G01*
X11644000Y-9652000D02*
G75*
G02*
X11724000Y-9652000I40000J0D01*
G01*
X11724000Y-10160000D02*
G75*
G02*
X11644000Y-10160000I-40000J0D01*
G01*
X11644000Y-10160000D02*
G75*
G02*
X11724000Y-10160000I40000J0D01*
G01*
X11724000Y-10668000D02*
G75*
G02*
X11644000Y-10668000I-40000J0D01*
G01*
X11644000Y-10668000D02*
G75*
G02*
X11724000Y-10668000I40000J0D01*
G01*
X11724000Y-11176000D02*
G75*
G02*
X11644000Y-11176000I-40000J0D01*
G01*
X11644000Y-11176000D02*
G75*
G02*
X11724000Y-11176000I40000J0D01*
G01*
X11724000Y-11684000D02*
G75*
G02*
X11644000Y-11684000I-40000J0D01*
G01*
X11644000Y-11684000D02*
G75*
G02*
X11724000Y-11684000I40000J0D01*
G01*
X11724000Y-12192000D02*
G75*
G02*
X11644000Y-12192000I-40000J0D01*
G01*
X11644000Y-12192000D02*
G75*
G02*
X11724000Y-12192000I40000J0D01*
G01*
X12232000Y-5842000D02*
G75*
G02*
X12152000Y-5842000I-40000J0D01*
G01*
X12152000Y-5842000D02*
G75*
G02*
X12232000Y-5842000I40000J0D01*
G01*
X12232000Y-6096000D02*
G75*
G02*
X12152000Y-6096000I-40000J0D01*
G01*
X12152000Y-6096000D02*
G75*
G02*
X12232000Y-6096000I40000J0D01*
G01*
X12232000Y-6350000D02*
G75*
G02*
X12152000Y-6350000I-40000J0D01*
G01*
X12152000Y-6350000D02*
G75*
G02*
X12232000Y-6350000I40000J0D01*
G01*
X12232000Y-6604000D02*
G75*
G02*
X12152000Y-6604000I-40000J0D01*
G01*
X12152000Y-6604000D02*
G75*
G02*
X12232000Y-6604000I40000J0D01*
G01*
X12232000Y-6858000D02*
G75*
G02*
X12152000Y-6858000I-40000J0D01*
G01*
X12152000Y-6858000D02*
G75*
G02*
X12232000Y-6858000I40000J0D01*
G01*
X12232000Y-7112000D02*
G75*
G02*
X12152000Y-7112000I-40000J0D01*
G01*
X12152000Y-7112000D02*
G75*
G02*
X12232000Y-7112000I40000J0D01*
G01*
X12232000Y-7366000D02*
G75*
G02*
X12152000Y-7366000I-40000J0D01*
G01*
X12152000Y-7366000D02*
G75*
G02*
X12232000Y-7366000I40000J0D01*
G01*
X12232000Y-7620000D02*
G75*
G02*
X12152000Y-7620000I-40000J0D01*
G01*
X12152000Y-7620000D02*
G75*
G02*
X12232000Y-7620000I40000J0D01*
G01*
X12232000Y-8636000D02*
G75*
G02*
X12152000Y-8636000I-40000J0D01*
G01*
X12152000Y-8636000D02*
G75*
G02*
X12232000Y-8636000I40000J0D01*
G01*
X12232000Y-9144000D02*
G75*
G02*
X12152000Y-9144000I-40000J0D01*
G01*
X12152000Y-9144000D02*
G75*
G02*
X12232000Y-9144000I40000J0D01*
G01*
X12232000Y-9652000D02*
G75*
G02*
X12152000Y-9652000I-40000J0D01*
G01*
X12152000Y-9652000D02*
G75*
G02*
X12232000Y-9652000I40000J0D01*
G01*
X12232000Y-10160000D02*
G75*
G02*
X12152000Y-10160000I-40000J0D01*
G01*
X12152000Y-10160000D02*
G75*
G02*
X12232000Y-10160000I40000J0D01*
G01*
X12232000Y-10668000D02*
G75*
G02*
X12152000Y-10668000I-40000J0D01*
G01*
X12152000Y-10668000D02*
G75*
G02*
X12232000Y-10668000I40000J0D01*
G01*
X12232000Y-11176000D02*
G75*
G02*
X12152000Y-11176000I-40000J0D01*
G01*
X12152000Y-11176000D02*
G75*
G02*
X12232000Y-11176000I40000J0D01*
G01*
X12232000Y-11684000D02*
G75*
G02*
X12152000Y-11684000I-40000J0D01*
G01*
X12152000Y-11684000D02*
G75*
G02*
X12232000Y-11684000I40000J0D01*
G01*
X12232000Y-12192000D02*
G75*
G02*
X12152000Y-12192000I-40000J0D01*
G01*
X12152000Y-12192000D02*
G75*
G02*
X12232000Y-12192000I40000J0D01*
G01*
X12486000Y-13208000D02*
G75*
G02*
X12406000Y-13208000I-40000J0D01*
G01*
X12406000Y-13208000D02*
G75*
G02*
X12486000Y-13208000I40000J0D01*
G01*
X12736000Y-13208000D02*
G75*
G02*
X12656000Y-13208000I-40000J0D01*
G01*
X12656000Y-13208000D02*
G75*
G02*
X12736000Y-13208000I40000J0D01*
G01*
X12994000Y-5842000D02*
G75*
G02*
X12914000Y-5842000I-40000J0D01*
G01*
X12914000Y-5842000D02*
G75*
G02*
X12994000Y-5842000I40000J0D01*
G01*
X12994000Y-6096000D02*
G75*
G02*
X12914000Y-6096000I-40000J0D01*
G01*
X12914000Y-6096000D02*
G75*
G02*
X12994000Y-6096000I40000J0D01*
G01*
X12994000Y-6350000D02*
G75*
G02*
X12914000Y-6350000I-40000J0D01*
G01*
X12914000Y-6350000D02*
G75*
G02*
X12994000Y-6350000I40000J0D01*
G01*
X12994000Y-6604000D02*
G75*
G02*
X12914000Y-6604000I-40000J0D01*
G01*
X12914000Y-6604000D02*
G75*
G02*
X12994000Y-6604000I40000J0D01*
G01*
X12994000Y-6858000D02*
G75*
G02*
X12914000Y-6858000I-40000J0D01*
G01*
X12914000Y-6858000D02*
G75*
G02*
X12994000Y-6858000I40000J0D01*
G01*
X12994000Y-7112000D02*
G75*
G02*
X12914000Y-7112000I-40000J0D01*
G01*
X12914000Y-7112000D02*
G75*
G02*
X12994000Y-7112000I40000J0D01*
G01*
X12994000Y-7366000D02*
G75*
G02*
X12914000Y-7366000I-40000J0D01*
G01*
X12914000Y-7366000D02*
G75*
G02*
X12994000Y-7366000I40000J0D01*
G01*
X12994000Y-7620000D02*
G75*
G02*
X12914000Y-7620000I-40000J0D01*
G01*
X12914000Y-7620000D02*
G75*
G02*
X12994000Y-7620000I40000J0D01*
G01*
X13248000Y-8636000D02*
G75*
G02*
X13168000Y-8636000I-40000J0D01*
G01*
X13168000Y-8636000D02*
G75*
G02*
X13248000Y-8636000I40000J0D01*
G01*
X13248000Y-9144000D02*
G75*
G02*
X13168000Y-9144000I-40000J0D01*
G01*
X13168000Y-9144000D02*
G75*
G02*
X13248000Y-9144000I40000J0D01*
G01*
X13248000Y-9652000D02*
G75*
G02*
X13168000Y-9652000I-40000J0D01*
G01*
X13168000Y-9652000D02*
G75*
G02*
X13248000Y-9652000I40000J0D01*
G01*
X13248000Y-10160000D02*
G75*
G02*
X13168000Y-10160000I-40000J0D01*
G01*
X13168000Y-10160000D02*
G75*
G02*
X13248000Y-10160000I40000J0D01*
G01*
X13248000Y-10668000D02*
G75*
G02*
X13168000Y-10668000I-40000J0D01*
G01*
X13168000Y-10668000D02*
G75*
G02*
X13248000Y-10668000I40000J0D01*
G01*
X13248000Y-11176000D02*
G75*
G02*
X13168000Y-11176000I-40000J0D01*
G01*
X13168000Y-11176000D02*
G75*
G02*
X13248000Y-11176000I40000J0D01*
G01*
X13248000Y-11684000D02*
G75*
G02*
X13168000Y-11684000I-40000J0D01*
G01*
X13168000Y-11684000D02*
G75*
G02*
X13248000Y-11684000I40000J0D01*
G01*
X13248000Y-12192000D02*
G75*
G02*
X13168000Y-12192000I-40000J0D01*
G01*
X13168000Y-12192000D02*
G75*
G02*
X13248000Y-12192000I40000J0D01*
G01*
X14264000Y-10160000D02*
G75*
G02*
X14184000Y-10160000I-40000J0D01*
G01*
X14184000Y-10160000D02*
G75*
G02*
X14264000Y-10160000I40000J0D01*
G01*
X14264000Y-11684000D02*
G75*
G02*
X14184000Y-11684000I-40000J0D01*
G01*
X14184000Y-11684000D02*
G75*
G02*
X14264000Y-11684000I40000J0D01*
G01*
X14518000Y-5588000D02*
G75*
G02*
X14438000Y-5588000I-40000J0D01*
G01*
X14438000Y-5588000D02*
G75*
G02*
X14518000Y-5588000I40000J0D01*
G01*
X14518000Y-6350000D02*
G75*
G02*
X14438000Y-6350000I-40000J0D01*
G01*
X14438000Y-6350000D02*
G75*
G02*
X14518000Y-6350000I40000J0D01*
G01*
X14518000Y-7112000D02*
G75*
G02*
X14438000Y-7112000I-40000J0D01*
G01*
X14438000Y-7112000D02*
G75*
G02*
X14518000Y-7112000I40000J0D01*
G01*
X14518000Y-7874000D02*
G75*
G02*
X14438000Y-7874000I-40000J0D01*
G01*
X14438000Y-7874000D02*
G75*
G02*
X14518000Y-7874000I40000J0D01*
G01*
X14518000Y-8636000D02*
G75*
G02*
X14438000Y-8636000I-40000J0D01*
G01*
X14438000Y-8636000D02*
G75*
G02*
X14518000Y-8636000I40000J0D01*
G01*
X14518000Y-9398000D02*
G75*
G02*
X14438000Y-9398000I-40000J0D01*
G01*
X14438000Y-9398000D02*
G75*
G02*
X14518000Y-9398000I40000J0D01*
G01*
X14518000Y-10160000D02*
G75*
G02*
X14438000Y-10160000I-40000J0D01*
G01*
X14438000Y-10160000D02*
G75*
G02*
X14518000Y-10160000I40000J0D01*
G01*
X14518000Y-11684000D02*
G75*
G02*
X14438000Y-11684000I-40000J0D01*
G01*
X14438000Y-11684000D02*
G75*
G02*
X14518000Y-11684000I40000J0D01*
G01*
X14772000Y-5588000D02*
G75*
G02*
X14692000Y-5588000I-40000J0D01*
G01*
X14692000Y-5588000D02*
G75*
G02*
X14772000Y-5588000I40000J0D01*
G01*
X14772000Y-6350000D02*
G75*
G02*
X14692000Y-6350000I-40000J0D01*
G01*
X14692000Y-6350000D02*
G75*
G02*
X14772000Y-6350000I40000J0D01*
G01*
X14772000Y-7112000D02*
G75*
G02*
X14692000Y-7112000I-40000J0D01*
G01*
X14692000Y-7112000D02*
G75*
G02*
X14772000Y-7112000I40000J0D01*
G01*
X14772000Y-7874000D02*
G75*
G02*
X14692000Y-7874000I-40000J0D01*
G01*
X14692000Y-7874000D02*
G75*
G02*
X14772000Y-7874000I40000J0D01*
G01*
X14772000Y-8636000D02*
G75*
G02*
X14692000Y-8636000I-40000J0D01*
G01*
X14692000Y-8636000D02*
G75*
G02*
X14772000Y-8636000I40000J0D01*
G01*
X14772000Y-9398000D02*
G75*
G02*
X14692000Y-9398000I-40000J0D01*
G01*
X14692000Y-9398000D02*
G75*
G02*
X14772000Y-9398000I40000J0D01*
G01*
X14772000Y-10160000D02*
G75*
G02*
X14692000Y-10160000I-40000J0D01*
G01*
X14692000Y-10160000D02*
G75*
G02*
X14772000Y-10160000I40000J0D01*
G01*
X14772000Y-11684000D02*
G75*
G02*
X14692000Y-11684000I-40000J0D01*
G01*
X14692000Y-11684000D02*
G75*
G02*
X14772000Y-11684000I40000J0D01*
G01*
X15026000Y-5588000D02*
G75*
G02*
X14946000Y-5588000I-40000J0D01*
G01*
X14946000Y-5588000D02*
G75*
G02*
X15026000Y-5588000I40000J0D01*
G01*
X15026000Y-6350000D02*
G75*
G02*
X14946000Y-6350000I-40000J0D01*
G01*
X14946000Y-6350000D02*
G75*
G02*
X15026000Y-6350000I40000J0D01*
G01*
X15026000Y-7112000D02*
G75*
G02*
X14946000Y-7112000I-40000J0D01*
G01*
X14946000Y-7112000D02*
G75*
G02*
X15026000Y-7112000I40000J0D01*
G01*
X15026000Y-7874000D02*
G75*
G02*
X14946000Y-7874000I-40000J0D01*
G01*
X14946000Y-7874000D02*
G75*
G02*
X15026000Y-7874000I40000J0D01*
G01*
X15026000Y-8636000D02*
G75*
G02*
X14946000Y-8636000I-40000J0D01*
G01*
X14946000Y-8636000D02*
G75*
G02*
X15026000Y-8636000I40000J0D01*
G01*
X15026000Y-9398000D02*
G75*
G02*
X14946000Y-9398000I-40000J0D01*
G01*
X14946000Y-9398000D02*
G75*
G02*
X15026000Y-9398000I40000J0D01*
G01*
X15026000Y-10160000D02*
G75*
G02*
X14946000Y-10160000I-40000J0D01*
G01*
X14946000Y-10160000D02*
G75*
G02*
X15026000Y-10160000I40000J0D01*
G01*
X15026000Y-11684000D02*
G75*
G02*
X14946000Y-11684000I-40000J0D01*
G01*
X14946000Y-11684000D02*
G75*
G02*
X15026000Y-11684000I40000J0D01*
G01*
X15280000Y-5588000D02*
G75*
G02*
X15200000Y-5588000I-40000J0D01*
G01*
X15200000Y-5588000D02*
G75*
G02*
X15280000Y-5588000I40000J0D01*
G01*
X15280000Y-6350000D02*
G75*
G02*
X15200000Y-6350000I-40000J0D01*
G01*
X15200000Y-6350000D02*
G75*
G02*
X15280000Y-6350000I40000J0D01*
G01*
X15280000Y-7112000D02*
G75*
G02*
X15200000Y-7112000I-40000J0D01*
G01*
X15200000Y-7112000D02*
G75*
G02*
X15280000Y-7112000I40000J0D01*
G01*
X15280000Y-7874000D02*
G75*
G02*
X15200000Y-7874000I-40000J0D01*
G01*
X15200000Y-7874000D02*
G75*
G02*
X15280000Y-7874000I40000J0D01*
G01*
X15280000Y-8636000D02*
G75*
G02*
X15200000Y-8636000I-40000J0D01*
G01*
X15200000Y-8636000D02*
G75*
G02*
X15280000Y-8636000I40000J0D01*
G01*
X15280000Y-9398000D02*
G75*
G02*
X15200000Y-9398000I-40000J0D01*
G01*
X15200000Y-9398000D02*
G75*
G02*
X15280000Y-9398000I40000J0D01*
G01*
X15280000Y-10160000D02*
G75*
G02*
X15200000Y-10160000I-40000J0D01*
G01*
X15200000Y-10160000D02*
G75*
G02*
X15280000Y-10160000I40000J0D01*
G01*
X15280000Y-11684000D02*
G75*
G02*
X15200000Y-11684000I-40000J0D01*
G01*
X15200000Y-11684000D02*
G75*
G02*
X15280000Y-11684000I40000J0D01*
G01*
X15534000Y-5588000D02*
G75*
G02*
X15454000Y-5588000I-40000J0D01*
G01*
X15454000Y-5588000D02*
G75*
G02*
X15534000Y-5588000I40000J0D01*
G01*
X15534000Y-6350000D02*
G75*
G02*
X15454000Y-6350000I-40000J0D01*
G01*
X15454000Y-6350000D02*
G75*
G02*
X15534000Y-6350000I40000J0D01*
G01*
X15534000Y-7112000D02*
G75*
G02*
X15454000Y-7112000I-40000J0D01*
G01*
X15454000Y-7112000D02*
G75*
G02*
X15534000Y-7112000I40000J0D01*
G01*
X15534000Y-7874000D02*
G75*
G02*
X15454000Y-7874000I-40000J0D01*
G01*
X15454000Y-7874000D02*
G75*
G02*
X15534000Y-7874000I40000J0D01*
G01*
X15534000Y-8636000D02*
G75*
G02*
X15454000Y-8636000I-40000J0D01*
G01*
X15454000Y-8636000D02*
G75*
G02*
X15534000Y-8636000I40000J0D01*
G01*
X15534000Y-9398000D02*
G75*
G02*
X15454000Y-9398000I-40000J0D01*
G01*
X15454000Y-9398000D02*
G75*
G02*
X15534000Y-9398000I40000J0D01*
G01*
X15534000Y-10160000D02*
G75*
G02*
X15454000Y-10160000I-40000J0D01*
G01*
X15454000Y-10160000D02*
G75*
G02*
X15534000Y-10160000I40000J0D01*
G01*
X15534000Y-11684000D02*
G75*
G02*
X15454000Y-11684000I-40000J0D01*
G01*
X15454000Y-11684000D02*
G75*
G02*
X15534000Y-11684000I40000J0D01*
G01*
X15788000Y-5588000D02*
G75*
G02*
X15708000Y-5588000I-40000J0D01*
G01*
X15708000Y-5588000D02*
G75*
G02*
X15788000Y-5588000I40000J0D01*
G01*
X15788000Y-6350000D02*
G75*
G02*
X15708000Y-6350000I-40000J0D01*
G01*
X15708000Y-6350000D02*
G75*
G02*
X15788000Y-6350000I40000J0D01*
G01*
X15788000Y-7112000D02*
G75*
G02*
X15708000Y-7112000I-40000J0D01*
G01*
X15708000Y-7112000D02*
G75*
G02*
X15788000Y-7112000I40000J0D01*
G01*
X15788000Y-7874000D02*
G75*
G02*
X15708000Y-7874000I-40000J0D01*
G01*
X15708000Y-7874000D02*
G75*
G02*
X15788000Y-7874000I40000J0D01*
G01*
X15788000Y-8636000D02*
G75*
G02*
X15708000Y-8636000I-40000J0D01*
G01*
X15708000Y-8636000D02*
G75*
G02*
X15788000Y-8636000I40000J0D01*
G01*
X15788000Y-9398000D02*
G75*
G02*
X15708000Y-9398000I-40000J0D01*
G01*
X15708000Y-9398000D02*
G75*
G02*
X15788000Y-9398000I40000J0D01*
G01*
X15788000Y-10160000D02*
G75*
G02*
X15708000Y-10160000I-40000J0D01*
G01*
X15708000Y-10160000D02*
G75*
G02*
X15788000Y-10160000I40000J0D01*
G01*
X15788000Y-11684000D02*
G75*
G02*
X15708000Y-11684000I-40000J0D01*
G01*
X15708000Y-11684000D02*
G75*
G02*
X15788000Y-11684000I40000J0D01*
G01*
X16042000Y-5588000D02*
G75*
G02*
X15962000Y-5588000I-40000J0D01*
G01*
X15962000Y-5588000D02*
G75*
G02*
X16042000Y-5588000I40000J0D01*
G01*
X16042000Y-6350000D02*
G75*
G02*
X15962000Y-6350000I-40000J0D01*
G01*
X15962000Y-6350000D02*
G75*
G02*
X16042000Y-6350000I40000J0D01*
G01*
X16042000Y-7112000D02*
G75*
G02*
X15962000Y-7112000I-40000J0D01*
G01*
X15962000Y-7112000D02*
G75*
G02*
X16042000Y-7112000I40000J0D01*
G01*
X16042000Y-7874000D02*
G75*
G02*
X15962000Y-7874000I-40000J0D01*
G01*
X15962000Y-7874000D02*
G75*
G02*
X16042000Y-7874000I40000J0D01*
G01*
X16042000Y-8636000D02*
G75*
G02*
X15962000Y-8636000I-40000J0D01*
G01*
X15962000Y-8636000D02*
G75*
G02*
X16042000Y-8636000I40000J0D01*
G01*
X16042000Y-9398000D02*
G75*
G02*
X15962000Y-9398000I-40000J0D01*
G01*
X15962000Y-9398000D02*
G75*
G02*
X16042000Y-9398000I40000J0D01*
G01*
X16042000Y-10160000D02*
G75*
G02*
X15962000Y-10160000I-40000J0D01*
G01*
X15962000Y-10160000D02*
G75*
G02*
X16042000Y-10160000I40000J0D01*
G01*
X16042000Y-11684000D02*
G75*
G02*
X15962000Y-11684000I-40000J0D01*
G01*
X15962000Y-11684000D02*
G75*
G02*
X16042000Y-11684000I40000J0D01*
G01*
X16296000Y-5588000D02*
G75*
G02*
X16216000Y-5588000I-40000J0D01*
G01*
X16216000Y-5588000D02*
G75*
G02*
X16296000Y-5588000I40000J0D01*
G01*
X16296000Y-6350000D02*
G75*
G02*
X16216000Y-6350000I-40000J0D01*
G01*
X16216000Y-6350000D02*
G75*
G02*
X16296000Y-6350000I40000J0D01*
G01*
X16296000Y-7112000D02*
G75*
G02*
X16216000Y-7112000I-40000J0D01*
G01*
X16216000Y-7112000D02*
G75*
G02*
X16296000Y-7112000I40000J0D01*
G01*
X16296000Y-7874000D02*
G75*
G02*
X16216000Y-7874000I-40000J0D01*
G01*
X16216000Y-7874000D02*
G75*
G02*
X16296000Y-7874000I40000J0D01*
G01*
X16296000Y-8636000D02*
G75*
G02*
X16216000Y-8636000I-40000J0D01*
G01*
X16216000Y-8636000D02*
G75*
G02*
X16296000Y-8636000I40000J0D01*
G01*
X16296000Y-9398000D02*
G75*
G02*
X16216000Y-9398000I-40000J0D01*
G01*
X16216000Y-9398000D02*
G75*
G02*
X16296000Y-9398000I40000J0D01*
G01*
X16296000Y-10160000D02*
G75*
G02*
X16216000Y-10160000I-40000J0D01*
G01*
X16216000Y-10160000D02*
G75*
G02*
X16296000Y-10160000I40000J0D01*
G01*
X16296000Y-11684000D02*
G75*
G02*
X16216000Y-11684000I-40000J0D01*
G01*
X16216000Y-11684000D02*
G75*
G02*
X16296000Y-11684000I40000J0D01*
G01*
X16550000Y-10160000D02*
G75*
G02*
X16470000Y-10160000I-40000J0D01*
G01*
X16470000Y-10160000D02*
G75*
G02*
X16550000Y-10160000I40000J0D01*
G01*
X16550000Y-11684000D02*
G75*
G02*
X16470000Y-11684000I-40000J0D01*
G01*
X16470000Y-11684000D02*
G75*
G02*
X16550000Y-11684000I40000J0D01*
G01*
X16804000Y-5850000D02*
G75*
G02*
X16724000Y-5850000I-40000J0D01*
G01*
X16724000Y-5850000D02*
G75*
G02*
X16804000Y-5850000I40000J0D01*
G01*
X16804000Y-6350000D02*
G75*
G02*
X16724000Y-6350000I-40000J0D01*
G01*
X16724000Y-6350000D02*
G75*
G02*
X16804000Y-6350000I40000J0D01*
G01*
X16804000Y-7374000D02*
G75*
G02*
X16724000Y-7374000I-40000J0D01*
G01*
X16724000Y-7374000D02*
G75*
G02*
X16804000Y-7374000I40000J0D01*
G01*
X16804000Y-7874000D02*
G75*
G02*
X16724000Y-7874000I-40000J0D01*
G01*
X16724000Y-7874000D02*
G75*
G02*
X16804000Y-7874000I40000J0D01*
G01*
X16804000Y-8898000D02*
G75*
G02*
X16724000Y-8898000I-40000J0D01*
G01*
X16724000Y-8898000D02*
G75*
G02*
X16804000Y-8898000I40000J0D01*
G01*
X16804000Y-9398000D02*
G75*
G02*
X16724000Y-9398000I-40000J0D01*
G01*
X16724000Y-9398000D02*
G75*
G02*
X16804000Y-9398000I40000J0D01*
G01*
X16804000Y-10160000D02*
G75*
G02*
X16724000Y-10160000I-40000J0D01*
G01*
X16724000Y-10160000D02*
G75*
G02*
X16804000Y-10160000I40000J0D01*
G01*
X16804000Y-11684000D02*
G75*
G02*
X16724000Y-11684000I-40000J0D01*
G01*
X16724000Y-11684000D02*
G75*
G02*
X16804000Y-11684000I40000J0D01*
G01*
X17058000Y-10160000D02*
G75*
G02*
X16978000Y-10160000I-40000J0D01*
G01*
X16978000Y-10160000D02*
G75*
G02*
X17058000Y-10160000I40000J0D01*
G01*
X17058000Y-11684000D02*
G75*
G02*
X16978000Y-11684000I-40000J0D01*
G01*
X16978000Y-11684000D02*
G75*
G02*
X17058000Y-11684000I40000J0D01*
G01*
X17312000Y-10160000D02*
G75*
G02*
X17232000Y-10160000I-40000J0D01*
G01*
X17232000Y-10160000D02*
G75*
G02*
X17312000Y-10160000I40000J0D01*
G01*
X17312000Y-11684000D02*
G75*
G02*
X17232000Y-11684000I-40000J0D01*
G01*
X17232000Y-11684000D02*
G75*
G02*
X17312000Y-11684000I40000J0D01*
G01*
X17566000Y-10160000D02*
G75*
G02*
X17486000Y-10160000I-40000J0D01*
G01*
X17486000Y-10160000D02*
G75*
G02*
X17566000Y-10160000I40000J0D01*
G01*
X17566000Y-11684000D02*
G75*
G02*
X17486000Y-11684000I-40000J0D01*
G01*
X17486000Y-11684000D02*
G75*
G02*
X17566000Y-11684000I40000J0D01*
G01*
X17820000Y-10160000D02*
G75*
G02*
X17740000Y-10160000I-40000J0D01*
G01*
X17740000Y-10160000D02*
G75*
G02*
X17820000Y-10160000I40000J0D01*
G01*
X17820000Y-11684000D02*
G75*
G02*
X17740000Y-11684000I-40000J0D01*
G01*
X17740000Y-11684000D02*
G75*
G02*
X17820000Y-11684000I40000J0D01*
G01*
X18074000Y-10160000D02*
G75*
G02*
X17994000Y-10160000I-40000J0D01*
G01*
X17994000Y-10160000D02*
G75*
G02*
X18074000Y-10160000I40000J0D01*
G01*
X18074000Y-11684000D02*
G75*
G02*
X17994000Y-11684000I-40000J0D01*
G01*
X17994000Y-11684000D02*
G75*
G02*
X18074000Y-11684000I40000J0D01*
G01*
X18328000Y-6604000D02*
G75*
G02*
X18248000Y-6604000I-40000J0D01*
G01*
X18248000Y-6604000D02*
G75*
G02*
X18328000Y-6604000I40000J0D01*
G01*
X18328000Y-6858000D02*
G75*
G02*
X18248000Y-6858000I-40000J0D01*
G01*
X18248000Y-6858000D02*
G75*
G02*
X18328000Y-6858000I40000J0D01*
G01*
X18328000Y-7112000D02*
G75*
G02*
X18248000Y-7112000I-40000J0D01*
G01*
X18248000Y-7112000D02*
G75*
G02*
X18328000Y-7112000I40000J0D01*
G01*
X18328000Y-7366000D02*
G75*
G02*
X18248000Y-7366000I-40000J0D01*
G01*
X18248000Y-7366000D02*
G75*
G02*
X18328000Y-7366000I40000J0D01*
G01*
X18328000Y-7620000D02*
G75*
G02*
X18248000Y-7620000I-40000J0D01*
G01*
X18248000Y-7620000D02*
G75*
G02*
X18328000Y-7620000I40000J0D01*
G01*
X18328000Y-7874000D02*
G75*
G02*
X18248000Y-7874000I-40000J0D01*
G01*
X18248000Y-7874000D02*
G75*
G02*
X18328000Y-7874000I40000J0D01*
G01*
X18328000Y-8128000D02*
G75*
G02*
X18248000Y-8128000I-40000J0D01*
G01*
X18248000Y-8128000D02*
G75*
G02*
X18328000Y-8128000I40000J0D01*
G01*
X18328000Y-8382000D02*
G75*
G02*
X18248000Y-8382000I-40000J0D01*
G01*
X18248000Y-8382000D02*
G75*
G02*
X18328000Y-8382000I40000J0D01*
G01*
X18328000Y-8636000D02*
G75*
G02*
X18248000Y-8636000I-40000J0D01*
G01*
X18248000Y-8636000D02*
G75*
G02*
X18328000Y-8636000I40000J0D01*
G01*
X18328000Y-8890000D02*
G75*
G02*
X18248000Y-8890000I-40000J0D01*
G01*
X18248000Y-8890000D02*
G75*
G02*
X18328000Y-8890000I40000J0D01*
G01*
X18332000Y-12446000D02*
G75*
G02*
X18252000Y-12446000I-40000J0D01*
G01*
X18252000Y-12446000D02*
G75*
G02*
X18332000Y-12446000I40000J0D01*
G01*
X18582000Y-6096000D02*
G75*
G02*
X18502000Y-6096000I-40000J0D01*
G01*
X18502000Y-6096000D02*
G75*
G02*
X18582000Y-6096000I40000J0D01*
G01*
X18582000Y-11176000D02*
G75*
G02*
X18502000Y-11176000I-40000J0D01*
G01*
X18502000Y-11176000D02*
G75*
G02*
X18582000Y-11176000I40000J0D01*
G01*
X18582000Y-11676000D02*
G75*
G02*
X18502000Y-11676000I-40000J0D01*
G01*
X18502000Y-11676000D02*
G75*
G02*
X18582000Y-11676000I40000J0D01*
G01*
X18582000Y-12446000D02*
G75*
G02*
X18502000Y-12446000I-40000J0D01*
G01*
X18502000Y-12446000D02*
G75*
G02*
X18582000Y-12446000I40000J0D01*
G01*
X19082000Y-6096000D02*
G75*
G02*
X19002000Y-6096000I-40000J0D01*
G01*
X19002000Y-6096000D02*
G75*
G02*
X19082000Y-6096000I40000J0D01*
G01*
X19090000Y-6604000D02*
G75*
G02*
X19010000Y-6604000I-40000J0D01*
G01*
X19010000Y-6604000D02*
G75*
G02*
X19090000Y-6604000I40000J0D01*
G01*
X19090000Y-6858000D02*
G75*
G02*
X19010000Y-6858000I-40000J0D01*
G01*
X19010000Y-6858000D02*
G75*
G02*
X19090000Y-6858000I40000J0D01*
G01*
X19090000Y-7112000D02*
G75*
G02*
X19010000Y-7112000I-40000J0D01*
G01*
X19010000Y-7112000D02*
G75*
G02*
X19090000Y-7112000I40000J0D01*
G01*
X19090000Y-7366000D02*
G75*
G02*
X19010000Y-7366000I-40000J0D01*
G01*
X19010000Y-7366000D02*
G75*
G02*
X19090000Y-7366000I40000J0D01*
G01*
X19090000Y-7620000D02*
G75*
G02*
X19010000Y-7620000I-40000J0D01*
G01*
X19010000Y-7620000D02*
G75*
G02*
X19090000Y-7620000I40000J0D01*
G01*
X19090000Y-7874000D02*
G75*
G02*
X19010000Y-7874000I-40000J0D01*
G01*
X19010000Y-7874000D02*
G75*
G02*
X19090000Y-7874000I40000J0D01*
G01*
X19090000Y-8128000D02*
G75*
G02*
X19010000Y-8128000I-40000J0D01*
G01*
X19010000Y-8128000D02*
G75*
G02*
X19090000Y-8128000I40000J0D01*
G01*
X19090000Y-8382000D02*
G75*
G02*
X19010000Y-8382000I-40000J0D01*
G01*
X19010000Y-8382000D02*
G75*
G02*
X19090000Y-8382000I40000J0D01*
G01*
X19090000Y-8636000D02*
G75*
G02*
X19010000Y-8636000I-40000J0D01*
G01*
X19010000Y-8636000D02*
G75*
G02*
X19090000Y-8636000I40000J0D01*
G01*
X19090000Y-8890000D02*
G75*
G02*
X19010000Y-8890000I-40000J0D01*
G01*
X19010000Y-8890000D02*
G75*
G02*
X19090000Y-8890000I40000J0D01*
G01*
X19098000Y-13208000D02*
G75*
G02*
X19018000Y-13208000I-40000J0D01*
G01*
X19018000Y-13208000D02*
G75*
G02*
X19098000Y-13208000I40000J0D01*
G01*
X19348000Y-13208000D02*
G75*
G02*
X19268000Y-13208000I-40000J0D01*
G01*
X19268000Y-13208000D02*
G75*
G02*
X19348000Y-13208000I40000J0D01*
G01*
D11*
X10418277Y-15299984D02*
X10418277Y-15099984D01*
X10418277Y-15099984D02*
X10465896Y-15099984D01*
X10465896Y-15099984D02*
X10494467Y-15109508D01*
X10494467Y-15109508D02*
X10513515Y-15128555D01*
X10513515Y-15128555D02*
X10523039Y-15147603D01*
X10523039Y-15147603D02*
X10532563Y-15185698D01*
X10532563Y-15185698D02*
X10532563Y-15214269D01*
X10532563Y-15214269D02*
X10523039Y-15252365D01*
X10523039Y-15252365D02*
X10513515Y-15271412D01*
X10513515Y-15271412D02*
X10494467Y-15290460D01*
X10494467Y-15290460D02*
X10465896Y-15299984D01*
X10465896Y-15299984D02*
X10418277Y-15299984D01*
X10618277Y-15299984D02*
X10618277Y-15166650D01*
X10618277Y-15204746D02*
X10627801Y-15185698D01*
X10627801Y-15185698D02*
X10637324Y-15176174D01*
X10637324Y-15176174D02*
X10656372Y-15166650D01*
X10656372Y-15166650D02*
X10675420Y-15166650D01*
X10742086Y-15299984D02*
X10742086Y-15166650D01*
X10742086Y-15099984D02*
X10732563Y-15109508D01*
X10732563Y-15109508D02*
X10742086Y-15119031D01*
X10742086Y-15119031D02*
X10751610Y-15109508D01*
X10751610Y-15109508D02*
X10742086Y-15099984D01*
X10742086Y-15099984D02*
X10742086Y-15119031D01*
X10865896Y-15299984D02*
X10846848Y-15290460D01*
X10846848Y-15290460D02*
X10837324Y-15271412D01*
X10837324Y-15271412D02*
X10837324Y-15099984D01*
X10970658Y-15299984D02*
X10951610Y-15290460D01*
X10951610Y-15290460D02*
X10942086Y-15271412D01*
X10942086Y-15271412D02*
X10942086Y-15099984D01*
X11199229Y-15299984D02*
X11199229Y-15099984D01*
X11199229Y-15099984D02*
X11265896Y-15242841D01*
X11265896Y-15242841D02*
X11332562Y-15099984D01*
X11332562Y-15099984D02*
X11332562Y-15299984D01*
X11513515Y-15299984D02*
X11513515Y-15195222D01*
X11513515Y-15195222D02*
X11503991Y-15176174D01*
X11503991Y-15176174D02*
X11484943Y-15166650D01*
X11484943Y-15166650D02*
X11446848Y-15166650D01*
X11446848Y-15166650D02*
X11427801Y-15176174D01*
X11513515Y-15290460D02*
X11494467Y-15299984D01*
X11494467Y-15299984D02*
X11446848Y-15299984D01*
X11446848Y-15299984D02*
X11427801Y-15290460D01*
X11427801Y-15290460D02*
X11418277Y-15271412D01*
X11418277Y-15271412D02*
X11418277Y-15252365D01*
X11418277Y-15252365D02*
X11427801Y-15233317D01*
X11427801Y-15233317D02*
X11446848Y-15223793D01*
X11446848Y-15223793D02*
X11494467Y-15223793D01*
X11494467Y-15223793D02*
X11513515Y-15214269D01*
X11608753Y-15166650D02*
X11608753Y-15366650D01*
X11608753Y-15176174D02*
X11627801Y-15166650D01*
X11627801Y-15166650D02*
X11665896Y-15166650D01*
X11665896Y-15166650D02*
X11684943Y-15176174D01*
X11684943Y-15176174D02*
X11694467Y-15185698D01*
X11694467Y-15185698D02*
X11703991Y-15204746D01*
X11703991Y-15204746D02*
X11703991Y-15261888D01*
X11703991Y-15261888D02*
X11694467Y-15280936D01*
X11694467Y-15280936D02*
X11684943Y-15290460D01*
X11684943Y-15290460D02*
X11665896Y-15299984D01*
X11665896Y-15299984D02*
X11627801Y-15299984D01*
X11627801Y-15299984D02*
X11608753Y-15290460D01*
X11789705Y-15280936D02*
X11799229Y-15290460D01*
X11799229Y-15290460D02*
X11789705Y-15299984D01*
X11789705Y-15299984D02*
X11780182Y-15290460D01*
X11780182Y-15290460D02*
X11789705Y-15280936D01*
X11789705Y-15280936D02*
X11789705Y-15299984D01*
X11789705Y-15176174D02*
X11799229Y-15185698D01*
X11799229Y-15185698D02*
X11789705Y-15195222D01*
X11789705Y-15195222D02*
X11780182Y-15185698D01*
X11780182Y-15185698D02*
X11789705Y-15176174D01*
X11789705Y-15176174D02*
X11789705Y-15195222D01*
D12*
X10127500Y-15613500D02*
X10157500Y-15643500D01*
X10157500Y-15613500D02*
X10127500Y-15643500D01*
D11*
X10456372Y-15519984D02*
X10475420Y-15519984D01*
X10475420Y-15519984D02*
X10494467Y-15529508D01*
X10494467Y-15529508D02*
X10503991Y-15539031D01*
X10503991Y-15539031D02*
X10513515Y-15558079D01*
X10513515Y-15558079D02*
X10523039Y-15596174D01*
X10523039Y-15596174D02*
X10523039Y-15643793D01*
X10523039Y-15643793D02*
X10513515Y-15681888D01*
X10513515Y-15681888D02*
X10503991Y-15700936D01*
X10503991Y-15700936D02*
X10494467Y-15710460D01*
X10494467Y-15710460D02*
X10475420Y-15719984D01*
X10475420Y-15719984D02*
X10456372Y-15719984D01*
X10456372Y-15719984D02*
X10437324Y-15710460D01*
X10437324Y-15710460D02*
X10427801Y-15700936D01*
X10427801Y-15700936D02*
X10418277Y-15681888D01*
X10418277Y-15681888D02*
X10408753Y-15643793D01*
X10408753Y-15643793D02*
X10408753Y-15596174D01*
X10408753Y-15596174D02*
X10418277Y-15558079D01*
X10418277Y-15558079D02*
X10427801Y-15539031D01*
X10427801Y-15539031D02*
X10437324Y-15529508D01*
X10437324Y-15529508D02*
X10456372Y-15519984D01*
X10608753Y-15700936D02*
X10618277Y-15710460D01*
X10618277Y-15710460D02*
X10608753Y-15719984D01*
X10608753Y-15719984D02*
X10599229Y-15710460D01*
X10599229Y-15710460D02*
X10608753Y-15700936D01*
X10608753Y-15700936D02*
X10608753Y-15719984D01*
X10684944Y-15519984D02*
X10808753Y-15519984D01*
X10808753Y-15519984D02*
X10742086Y-15596174D01*
X10742086Y-15596174D02*
X10770658Y-15596174D01*
X10770658Y-15596174D02*
X10789705Y-15605698D01*
X10789705Y-15605698D02*
X10799229Y-15615222D01*
X10799229Y-15615222D02*
X10808753Y-15634269D01*
X10808753Y-15634269D02*
X10808753Y-15681888D01*
X10808753Y-15681888D02*
X10799229Y-15700936D01*
X10799229Y-15700936D02*
X10789705Y-15710460D01*
X10789705Y-15710460D02*
X10770658Y-15719984D01*
X10770658Y-15719984D02*
X10713515Y-15719984D01*
X10713515Y-15719984D02*
X10694467Y-15710460D01*
X10694467Y-15710460D02*
X10684944Y-15700936D01*
X10932563Y-15519984D02*
X10951610Y-15519984D01*
X10951610Y-15519984D02*
X10970658Y-15529508D01*
X10970658Y-15529508D02*
X10980182Y-15539031D01*
X10980182Y-15539031D02*
X10989705Y-15558079D01*
X10989705Y-15558079D02*
X10999229Y-15596174D01*
X10999229Y-15596174D02*
X10999229Y-15643793D01*
X10999229Y-15643793D02*
X10989705Y-15681888D01*
X10989705Y-15681888D02*
X10980182Y-15700936D01*
X10980182Y-15700936D02*
X10970658Y-15710460D01*
X10970658Y-15710460D02*
X10951610Y-15719984D01*
X10951610Y-15719984D02*
X10932563Y-15719984D01*
X10932563Y-15719984D02*
X10913515Y-15710460D01*
X10913515Y-15710460D02*
X10903991Y-15700936D01*
X10903991Y-15700936D02*
X10894467Y-15681888D01*
X10894467Y-15681888D02*
X10884944Y-15643793D01*
X10884944Y-15643793D02*
X10884944Y-15596174D01*
X10884944Y-15596174D02*
X10894467Y-15558079D01*
X10894467Y-15558079D02*
X10903991Y-15539031D01*
X10903991Y-15539031D02*
X10913515Y-15529508D01*
X10913515Y-15529508D02*
X10932563Y-15519984D01*
X11123039Y-15519984D02*
X11142086Y-15519984D01*
X11142086Y-15519984D02*
X11161134Y-15529508D01*
X11161134Y-15529508D02*
X11170658Y-15539031D01*
X11170658Y-15539031D02*
X11180182Y-15558079D01*
X11180182Y-15558079D02*
X11189705Y-15596174D01*
X11189705Y-15596174D02*
X11189705Y-15643793D01*
X11189705Y-15643793D02*
X11180182Y-15681888D01*
X11180182Y-15681888D02*
X11170658Y-15700936D01*
X11170658Y-15700936D02*
X11161134Y-15710460D01*
X11161134Y-15710460D02*
X11142086Y-15719984D01*
X11142086Y-15719984D02*
X11123039Y-15719984D01*
X11123039Y-15719984D02*
X11103991Y-15710460D01*
X11103991Y-15710460D02*
X11094467Y-15700936D01*
X11094467Y-15700936D02*
X11084944Y-15681888D01*
X11084944Y-15681888D02*
X11075420Y-15643793D01*
X11075420Y-15643793D02*
X11075420Y-15596174D01*
X11075420Y-15596174D02*
X11084944Y-15558079D01*
X11084944Y-15558079D02*
X11094467Y-15539031D01*
X11094467Y-15539031D02*
X11103991Y-15529508D01*
X11103991Y-15529508D02*
X11123039Y-15519984D01*
X11275420Y-15719984D02*
X11275420Y-15586650D01*
X11275420Y-15605698D02*
X11284943Y-15596174D01*
X11284943Y-15596174D02*
X11303991Y-15586650D01*
X11303991Y-15586650D02*
X11332563Y-15586650D01*
X11332563Y-15586650D02*
X11351610Y-15596174D01*
X11351610Y-15596174D02*
X11361134Y-15615222D01*
X11361134Y-15615222D02*
X11361134Y-15719984D01*
X11361134Y-15615222D02*
X11370658Y-15596174D01*
X11370658Y-15596174D02*
X11389705Y-15586650D01*
X11389705Y-15586650D02*
X11418277Y-15586650D01*
X11418277Y-15586650D02*
X11437324Y-15596174D01*
X11437324Y-15596174D02*
X11446848Y-15615222D01*
X11446848Y-15615222D02*
X11446848Y-15719984D01*
X11542086Y-15719984D02*
X11542086Y-15586650D01*
X11542086Y-15605698D02*
X11551610Y-15596174D01*
X11551610Y-15596174D02*
X11570658Y-15586650D01*
X11570658Y-15586650D02*
X11599229Y-15586650D01*
X11599229Y-15586650D02*
X11618277Y-15596174D01*
X11618277Y-15596174D02*
X11627801Y-15615222D01*
X11627801Y-15615222D02*
X11627801Y-15719984D01*
X11627801Y-15615222D02*
X11637324Y-15596174D01*
X11637324Y-15596174D02*
X11656372Y-15586650D01*
X11656372Y-15586650D02*
X11684943Y-15586650D01*
X11684943Y-15586650D02*
X11703991Y-15596174D01*
X11703991Y-15596174D02*
X11713515Y-15615222D01*
X11713515Y-15615222D02*
X11713515Y-15719984D01*
X12103991Y-15510460D02*
X11932563Y-15767603D01*
X12361134Y-15519984D02*
X12380182Y-15519984D01*
X12380182Y-15519984D02*
X12399229Y-15529508D01*
X12399229Y-15529508D02*
X12408753Y-15539031D01*
X12408753Y-15539031D02*
X12418277Y-15558079D01*
X12418277Y-15558079D02*
X12427801Y-15596174D01*
X12427801Y-15596174D02*
X12427801Y-15643793D01*
X12427801Y-15643793D02*
X12418277Y-15681888D01*
X12418277Y-15681888D02*
X12408753Y-15700936D01*
X12408753Y-15700936D02*
X12399229Y-15710460D01*
X12399229Y-15710460D02*
X12380182Y-15719984D01*
X12380182Y-15719984D02*
X12361134Y-15719984D01*
X12361134Y-15719984D02*
X12342086Y-15710460D01*
X12342086Y-15710460D02*
X12332563Y-15700936D01*
X12332563Y-15700936D02*
X12323039Y-15681888D01*
X12323039Y-15681888D02*
X12313515Y-15643793D01*
X12313515Y-15643793D02*
X12313515Y-15596174D01*
X12313515Y-15596174D02*
X12323039Y-15558079D01*
X12323039Y-15558079D02*
X12332563Y-15539031D01*
X12332563Y-15539031D02*
X12342086Y-15529508D01*
X12342086Y-15529508D02*
X12361134Y-15519984D01*
X12513515Y-15700936D02*
X12523039Y-15710460D01*
X12523039Y-15710460D02*
X12513515Y-15719984D01*
X12513515Y-15719984D02*
X12503991Y-15710460D01*
X12503991Y-15710460D02*
X12513515Y-15700936D01*
X12513515Y-15700936D02*
X12513515Y-15719984D01*
X12646848Y-15519984D02*
X12665896Y-15519984D01*
X12665896Y-15519984D02*
X12684944Y-15529508D01*
X12684944Y-15529508D02*
X12694467Y-15539031D01*
X12694467Y-15539031D02*
X12703991Y-15558079D01*
X12703991Y-15558079D02*
X12713515Y-15596174D01*
X12713515Y-15596174D02*
X12713515Y-15643793D01*
X12713515Y-15643793D02*
X12703991Y-15681888D01*
X12703991Y-15681888D02*
X12694467Y-15700936D01*
X12694467Y-15700936D02*
X12684944Y-15710460D01*
X12684944Y-15710460D02*
X12665896Y-15719984D01*
X12665896Y-15719984D02*
X12646848Y-15719984D01*
X12646848Y-15719984D02*
X12627801Y-15710460D01*
X12627801Y-15710460D02*
X12618277Y-15700936D01*
X12618277Y-15700936D02*
X12608753Y-15681888D01*
X12608753Y-15681888D02*
X12599229Y-15643793D01*
X12599229Y-15643793D02*
X12599229Y-15596174D01*
X12599229Y-15596174D02*
X12608753Y-15558079D01*
X12608753Y-15558079D02*
X12618277Y-15539031D01*
X12618277Y-15539031D02*
X12627801Y-15529508D01*
X12627801Y-15529508D02*
X12646848Y-15519984D01*
X12903991Y-15719984D02*
X12789706Y-15719984D01*
X12846848Y-15719984D02*
X12846848Y-15519984D01*
X12846848Y-15519984D02*
X12827801Y-15548555D01*
X12827801Y-15548555D02*
X12808753Y-15567603D01*
X12808753Y-15567603D02*
X12789706Y-15577127D01*
X13094467Y-15719984D02*
X12980182Y-15719984D01*
X13037325Y-15719984D02*
X13037325Y-15519984D01*
X13037325Y-15519984D02*
X13018277Y-15548555D01*
X13018277Y-15548555D02*
X12999229Y-15567603D01*
X12999229Y-15567603D02*
X12980182Y-15577127D01*
X13208753Y-15605698D02*
X13189706Y-15596174D01*
X13189706Y-15596174D02*
X13180182Y-15586650D01*
X13180182Y-15586650D02*
X13170658Y-15567603D01*
X13170658Y-15567603D02*
X13170658Y-15558079D01*
X13170658Y-15558079D02*
X13180182Y-15539031D01*
X13180182Y-15539031D02*
X13189706Y-15529508D01*
X13189706Y-15529508D02*
X13208753Y-15519984D01*
X13208753Y-15519984D02*
X13246848Y-15519984D01*
X13246848Y-15519984D02*
X13265896Y-15529508D01*
X13265896Y-15529508D02*
X13275420Y-15539031D01*
X13275420Y-15539031D02*
X13284944Y-15558079D01*
X13284944Y-15558079D02*
X13284944Y-15567603D01*
X13284944Y-15567603D02*
X13275420Y-15586650D01*
X13275420Y-15586650D02*
X13265896Y-15596174D01*
X13265896Y-15596174D02*
X13246848Y-15605698D01*
X13246848Y-15605698D02*
X13208753Y-15605698D01*
X13208753Y-15605698D02*
X13189706Y-15615222D01*
X13189706Y-15615222D02*
X13180182Y-15624746D01*
X13180182Y-15624746D02*
X13170658Y-15643793D01*
X13170658Y-15643793D02*
X13170658Y-15681888D01*
X13170658Y-15681888D02*
X13180182Y-15700936D01*
X13180182Y-15700936D02*
X13189706Y-15710460D01*
X13189706Y-15710460D02*
X13208753Y-15719984D01*
X13208753Y-15719984D02*
X13246848Y-15719984D01*
X13246848Y-15719984D02*
X13265896Y-15710460D01*
X13265896Y-15710460D02*
X13275420Y-15700936D01*
X13275420Y-15700936D02*
X13284944Y-15681888D01*
X13284944Y-15681888D02*
X13284944Y-15643793D01*
X13284944Y-15643793D02*
X13275420Y-15624746D01*
X13275420Y-15624746D02*
X13265896Y-15615222D01*
X13265896Y-15615222D02*
X13246848Y-15605698D01*
X13361134Y-15519984D02*
X13361134Y-15558079D01*
X13437325Y-15519984D02*
X13437325Y-15558079D01*
X13732563Y-15796174D02*
X13723039Y-15786650D01*
X13723039Y-15786650D02*
X13703991Y-15758079D01*
X13703991Y-15758079D02*
X13694468Y-15739031D01*
X13694468Y-15739031D02*
X13684944Y-15710460D01*
X13684944Y-15710460D02*
X13675420Y-15662841D01*
X13675420Y-15662841D02*
X13675420Y-15624746D01*
X13675420Y-15624746D02*
X13684944Y-15577127D01*
X13684944Y-15577127D02*
X13694468Y-15548555D01*
X13694468Y-15548555D02*
X13703991Y-15529508D01*
X13703991Y-15529508D02*
X13723039Y-15500936D01*
X13723039Y-15500936D02*
X13732563Y-15491412D01*
X13799229Y-15539031D02*
X13808753Y-15529508D01*
X13808753Y-15529508D02*
X13827801Y-15519984D01*
X13827801Y-15519984D02*
X13875420Y-15519984D01*
X13875420Y-15519984D02*
X13894468Y-15529508D01*
X13894468Y-15529508D02*
X13903991Y-15539031D01*
X13903991Y-15539031D02*
X13913515Y-15558079D01*
X13913515Y-15558079D02*
X13913515Y-15577127D01*
X13913515Y-15577127D02*
X13903991Y-15605698D01*
X13903991Y-15605698D02*
X13789706Y-15719984D01*
X13789706Y-15719984D02*
X13913515Y-15719984D01*
X14084944Y-15586650D02*
X14084944Y-15719984D01*
X14037325Y-15510460D02*
X13989706Y-15653317D01*
X13989706Y-15653317D02*
X14113515Y-15653317D01*
X14275420Y-15519984D02*
X14237325Y-15519984D01*
X14237325Y-15519984D02*
X14218277Y-15529508D01*
X14218277Y-15529508D02*
X14208753Y-15539031D01*
X14208753Y-15539031D02*
X14189706Y-15567603D01*
X14189706Y-15567603D02*
X14180182Y-15605698D01*
X14180182Y-15605698D02*
X14180182Y-15681888D01*
X14180182Y-15681888D02*
X14189706Y-15700936D01*
X14189706Y-15700936D02*
X14199229Y-15710460D01*
X14199229Y-15710460D02*
X14218277Y-15719984D01*
X14218277Y-15719984D02*
X14256372Y-15719984D01*
X14256372Y-15719984D02*
X14275420Y-15710460D01*
X14275420Y-15710460D02*
X14284944Y-15700936D01*
X14284944Y-15700936D02*
X14294468Y-15681888D01*
X14294468Y-15681888D02*
X14294468Y-15634269D01*
X14294468Y-15634269D02*
X14284944Y-15615222D01*
X14284944Y-15615222D02*
X14275420Y-15605698D01*
X14275420Y-15605698D02*
X14256372Y-15596174D01*
X14256372Y-15596174D02*
X14218277Y-15596174D01*
X14218277Y-15596174D02*
X14199229Y-15605698D01*
X14199229Y-15605698D02*
X14189706Y-15615222D01*
X14189706Y-15615222D02*
X14180182Y-15634269D01*
X14532563Y-15719984D02*
X14532563Y-15519984D01*
X14618277Y-15719984D02*
X14618277Y-15615222D01*
X14618277Y-15615222D02*
X14608753Y-15596174D01*
X14608753Y-15596174D02*
X14589706Y-15586650D01*
X14589706Y-15586650D02*
X14561134Y-15586650D01*
X14561134Y-15586650D02*
X14542087Y-15596174D01*
X14542087Y-15596174D02*
X14532563Y-15605698D01*
X14742087Y-15719984D02*
X14723039Y-15710460D01*
X14723039Y-15710460D02*
X14713515Y-15700936D01*
X14713515Y-15700936D02*
X14703991Y-15681888D01*
X14703991Y-15681888D02*
X14703991Y-15624746D01*
X14703991Y-15624746D02*
X14713515Y-15605698D01*
X14713515Y-15605698D02*
X14723039Y-15596174D01*
X14723039Y-15596174D02*
X14742087Y-15586650D01*
X14742087Y-15586650D02*
X14770658Y-15586650D01*
X14770658Y-15586650D02*
X14789706Y-15596174D01*
X14789706Y-15596174D02*
X14799230Y-15605698D01*
X14799230Y-15605698D02*
X14808753Y-15624746D01*
X14808753Y-15624746D02*
X14808753Y-15681888D01*
X14808753Y-15681888D02*
X14799230Y-15700936D01*
X14799230Y-15700936D02*
X14789706Y-15710460D01*
X14789706Y-15710460D02*
X14770658Y-15719984D01*
X14770658Y-15719984D02*
X14742087Y-15719984D01*
X14923039Y-15719984D02*
X14903991Y-15710460D01*
X14903991Y-15710460D02*
X14894468Y-15691412D01*
X14894468Y-15691412D02*
X14894468Y-15519984D01*
X15075420Y-15710460D02*
X15056372Y-15719984D01*
X15056372Y-15719984D02*
X15018277Y-15719984D01*
X15018277Y-15719984D02*
X14999230Y-15710460D01*
X14999230Y-15710460D02*
X14989706Y-15691412D01*
X14989706Y-15691412D02*
X14989706Y-15615222D01*
X14989706Y-15615222D02*
X14999230Y-15596174D01*
X14999230Y-15596174D02*
X15018277Y-15586650D01*
X15018277Y-15586650D02*
X15056372Y-15586650D01*
X15056372Y-15586650D02*
X15075420Y-15596174D01*
X15075420Y-15596174D02*
X15084944Y-15615222D01*
X15084944Y-15615222D02*
X15084944Y-15634269D01*
X15084944Y-15634269D02*
X14989706Y-15653317D01*
X15161134Y-15710460D02*
X15180182Y-15719984D01*
X15180182Y-15719984D02*
X15218277Y-15719984D01*
X15218277Y-15719984D02*
X15237325Y-15710460D01*
X15237325Y-15710460D02*
X15246849Y-15691412D01*
X15246849Y-15691412D02*
X15246849Y-15681888D01*
X15246849Y-15681888D02*
X15237325Y-15662841D01*
X15237325Y-15662841D02*
X15218277Y-15653317D01*
X15218277Y-15653317D02*
X15189706Y-15653317D01*
X15189706Y-15653317D02*
X15170658Y-15643793D01*
X15170658Y-15643793D02*
X15161134Y-15624746D01*
X15161134Y-15624746D02*
X15161134Y-15615222D01*
X15161134Y-15615222D02*
X15170658Y-15596174D01*
X15170658Y-15596174D02*
X15189706Y-15586650D01*
X15189706Y-15586650D02*
X15218277Y-15586650D01*
X15218277Y-15586650D02*
X15237325Y-15596174D01*
X15313515Y-15796174D02*
X15323039Y-15786650D01*
X15323039Y-15786650D02*
X15342087Y-15758079D01*
X15342087Y-15758079D02*
X15351611Y-15739031D01*
X15351611Y-15739031D02*
X15361134Y-15710460D01*
X15361134Y-15710460D02*
X15370658Y-15662841D01*
X15370658Y-15662841D02*
X15370658Y-15624746D01*
X15370658Y-15624746D02*
X15361134Y-15577127D01*
X15361134Y-15577127D02*
X15351611Y-15548555D01*
X15351611Y-15548555D02*
X15342087Y-15529508D01*
X15342087Y-15529508D02*
X15323039Y-15500936D01*
X15323039Y-15500936D02*
X15313515Y-15491412D01*
D12*
X10157500Y-15892500D02*
G75*
G02*
X10077500Y-15892500I-40000J0D01*
G01*
X10077500Y-15892500D02*
G75*
G02*
X10157500Y-15892500I40000J0D01*
G01*
D11*
X10456372Y-15783984D02*
X10475420Y-15783984D01*
X10475420Y-15783984D02*
X10494467Y-15793508D01*
X10494467Y-15793508D02*
X10503991Y-15803031D01*
X10503991Y-15803031D02*
X10513515Y-15822079D01*
X10513515Y-15822079D02*
X10523039Y-15860174D01*
X10523039Y-15860174D02*
X10523039Y-15907793D01*
X10523039Y-15907793D02*
X10513515Y-15945888D01*
X10513515Y-15945888D02*
X10503991Y-15964936D01*
X10503991Y-15964936D02*
X10494467Y-15974460D01*
X10494467Y-15974460D02*
X10475420Y-15983984D01*
X10475420Y-15983984D02*
X10456372Y-15983984D01*
X10456372Y-15983984D02*
X10437324Y-15974460D01*
X10437324Y-15974460D02*
X10427801Y-15964936D01*
X10427801Y-15964936D02*
X10418277Y-15945888D01*
X10418277Y-15945888D02*
X10408753Y-15907793D01*
X10408753Y-15907793D02*
X10408753Y-15860174D01*
X10408753Y-15860174D02*
X10418277Y-15822079D01*
X10418277Y-15822079D02*
X10427801Y-15803031D01*
X10427801Y-15803031D02*
X10437324Y-15793508D01*
X10437324Y-15793508D02*
X10456372Y-15783984D01*
X10608753Y-15964936D02*
X10618277Y-15974460D01*
X10618277Y-15974460D02*
X10608753Y-15983984D01*
X10608753Y-15983984D02*
X10599229Y-15974460D01*
X10599229Y-15974460D02*
X10608753Y-15964936D01*
X10608753Y-15964936D02*
X10608753Y-15983984D01*
X10732563Y-15869698D02*
X10713515Y-15860174D01*
X10713515Y-15860174D02*
X10703991Y-15850650D01*
X10703991Y-15850650D02*
X10694467Y-15831603D01*
X10694467Y-15831603D02*
X10694467Y-15822079D01*
X10694467Y-15822079D02*
X10703991Y-15803031D01*
X10703991Y-15803031D02*
X10713515Y-15793508D01*
X10713515Y-15793508D02*
X10732563Y-15783984D01*
X10732563Y-15783984D02*
X10770658Y-15783984D01*
X10770658Y-15783984D02*
X10789705Y-15793508D01*
X10789705Y-15793508D02*
X10799229Y-15803031D01*
X10799229Y-15803031D02*
X10808753Y-15822079D01*
X10808753Y-15822079D02*
X10808753Y-15831603D01*
X10808753Y-15831603D02*
X10799229Y-15850650D01*
X10799229Y-15850650D02*
X10789705Y-15860174D01*
X10789705Y-15860174D02*
X10770658Y-15869698D01*
X10770658Y-15869698D02*
X10732563Y-15869698D01*
X10732563Y-15869698D02*
X10713515Y-15879222D01*
X10713515Y-15879222D02*
X10703991Y-15888746D01*
X10703991Y-15888746D02*
X10694467Y-15907793D01*
X10694467Y-15907793D02*
X10694467Y-15945888D01*
X10694467Y-15945888D02*
X10703991Y-15964936D01*
X10703991Y-15964936D02*
X10713515Y-15974460D01*
X10713515Y-15974460D02*
X10732563Y-15983984D01*
X10732563Y-15983984D02*
X10770658Y-15983984D01*
X10770658Y-15983984D02*
X10789705Y-15974460D01*
X10789705Y-15974460D02*
X10799229Y-15964936D01*
X10799229Y-15964936D02*
X10808753Y-15945888D01*
X10808753Y-15945888D02*
X10808753Y-15907793D01*
X10808753Y-15907793D02*
X10799229Y-15888746D01*
X10799229Y-15888746D02*
X10789705Y-15879222D01*
X10789705Y-15879222D02*
X10770658Y-15869698D01*
X10932563Y-15783984D02*
X10951610Y-15783984D01*
X10951610Y-15783984D02*
X10970658Y-15793508D01*
X10970658Y-15793508D02*
X10980182Y-15803031D01*
X10980182Y-15803031D02*
X10989705Y-15822079D01*
X10989705Y-15822079D02*
X10999229Y-15860174D01*
X10999229Y-15860174D02*
X10999229Y-15907793D01*
X10999229Y-15907793D02*
X10989705Y-15945888D01*
X10989705Y-15945888D02*
X10980182Y-15964936D01*
X10980182Y-15964936D02*
X10970658Y-15974460D01*
X10970658Y-15974460D02*
X10951610Y-15983984D01*
X10951610Y-15983984D02*
X10932563Y-15983984D01*
X10932563Y-15983984D02*
X10913515Y-15974460D01*
X10913515Y-15974460D02*
X10903991Y-15964936D01*
X10903991Y-15964936D02*
X10894467Y-15945888D01*
X10894467Y-15945888D02*
X10884944Y-15907793D01*
X10884944Y-15907793D02*
X10884944Y-15860174D01*
X10884944Y-15860174D02*
X10894467Y-15822079D01*
X10894467Y-15822079D02*
X10903991Y-15803031D01*
X10903991Y-15803031D02*
X10913515Y-15793508D01*
X10913515Y-15793508D02*
X10932563Y-15783984D01*
X11123039Y-15783984D02*
X11142086Y-15783984D01*
X11142086Y-15783984D02*
X11161134Y-15793508D01*
X11161134Y-15793508D02*
X11170658Y-15803031D01*
X11170658Y-15803031D02*
X11180182Y-15822079D01*
X11180182Y-15822079D02*
X11189705Y-15860174D01*
X11189705Y-15860174D02*
X11189705Y-15907793D01*
X11189705Y-15907793D02*
X11180182Y-15945888D01*
X11180182Y-15945888D02*
X11170658Y-15964936D01*
X11170658Y-15964936D02*
X11161134Y-15974460D01*
X11161134Y-15974460D02*
X11142086Y-15983984D01*
X11142086Y-15983984D02*
X11123039Y-15983984D01*
X11123039Y-15983984D02*
X11103991Y-15974460D01*
X11103991Y-15974460D02*
X11094467Y-15964936D01*
X11094467Y-15964936D02*
X11084944Y-15945888D01*
X11084944Y-15945888D02*
X11075420Y-15907793D01*
X11075420Y-15907793D02*
X11075420Y-15860174D01*
X11075420Y-15860174D02*
X11084944Y-15822079D01*
X11084944Y-15822079D02*
X11094467Y-15803031D01*
X11094467Y-15803031D02*
X11103991Y-15793508D01*
X11103991Y-15793508D02*
X11123039Y-15783984D01*
X11275420Y-15983984D02*
X11275420Y-15850650D01*
X11275420Y-15869698D02*
X11284943Y-15860174D01*
X11284943Y-15860174D02*
X11303991Y-15850650D01*
X11303991Y-15850650D02*
X11332563Y-15850650D01*
X11332563Y-15850650D02*
X11351610Y-15860174D01*
X11351610Y-15860174D02*
X11361134Y-15879222D01*
X11361134Y-15879222D02*
X11361134Y-15983984D01*
X11361134Y-15879222D02*
X11370658Y-15860174D01*
X11370658Y-15860174D02*
X11389705Y-15850650D01*
X11389705Y-15850650D02*
X11418277Y-15850650D01*
X11418277Y-15850650D02*
X11437324Y-15860174D01*
X11437324Y-15860174D02*
X11446848Y-15879222D01*
X11446848Y-15879222D02*
X11446848Y-15983984D01*
X11542086Y-15983984D02*
X11542086Y-15850650D01*
X11542086Y-15869698D02*
X11551610Y-15860174D01*
X11551610Y-15860174D02*
X11570658Y-15850650D01*
X11570658Y-15850650D02*
X11599229Y-15850650D01*
X11599229Y-15850650D02*
X11618277Y-15860174D01*
X11618277Y-15860174D02*
X11627801Y-15879222D01*
X11627801Y-15879222D02*
X11627801Y-15983984D01*
X11627801Y-15879222D02*
X11637324Y-15860174D01*
X11637324Y-15860174D02*
X11656372Y-15850650D01*
X11656372Y-15850650D02*
X11684943Y-15850650D01*
X11684943Y-15850650D02*
X11703991Y-15860174D01*
X11703991Y-15860174D02*
X11713515Y-15879222D01*
X11713515Y-15879222D02*
X11713515Y-15983984D01*
X12103991Y-15774460D02*
X11932563Y-16031603D01*
X12361134Y-15783984D02*
X12380182Y-15783984D01*
X12380182Y-15783984D02*
X12399229Y-15793508D01*
X12399229Y-15793508D02*
X12408753Y-15803031D01*
X12408753Y-15803031D02*
X12418277Y-15822079D01*
X12418277Y-15822079D02*
X12427801Y-15860174D01*
X12427801Y-15860174D02*
X12427801Y-15907793D01*
X12427801Y-15907793D02*
X12418277Y-15945888D01*
X12418277Y-15945888D02*
X12408753Y-15964936D01*
X12408753Y-15964936D02*
X12399229Y-15974460D01*
X12399229Y-15974460D02*
X12380182Y-15983984D01*
X12380182Y-15983984D02*
X12361134Y-15983984D01*
X12361134Y-15983984D02*
X12342086Y-15974460D01*
X12342086Y-15974460D02*
X12332563Y-15964936D01*
X12332563Y-15964936D02*
X12323039Y-15945888D01*
X12323039Y-15945888D02*
X12313515Y-15907793D01*
X12313515Y-15907793D02*
X12313515Y-15860174D01*
X12313515Y-15860174D02*
X12323039Y-15822079D01*
X12323039Y-15822079D02*
X12332563Y-15803031D01*
X12332563Y-15803031D02*
X12342086Y-15793508D01*
X12342086Y-15793508D02*
X12361134Y-15783984D01*
X12513515Y-15964936D02*
X12523039Y-15974460D01*
X12523039Y-15974460D02*
X12513515Y-15983984D01*
X12513515Y-15983984D02*
X12503991Y-15974460D01*
X12503991Y-15974460D02*
X12513515Y-15964936D01*
X12513515Y-15964936D02*
X12513515Y-15983984D01*
X12646848Y-15783984D02*
X12665896Y-15783984D01*
X12665896Y-15783984D02*
X12684944Y-15793508D01*
X12684944Y-15793508D02*
X12694467Y-15803031D01*
X12694467Y-15803031D02*
X12703991Y-15822079D01*
X12703991Y-15822079D02*
X12713515Y-15860174D01*
X12713515Y-15860174D02*
X12713515Y-15907793D01*
X12713515Y-15907793D02*
X12703991Y-15945888D01*
X12703991Y-15945888D02*
X12694467Y-15964936D01*
X12694467Y-15964936D02*
X12684944Y-15974460D01*
X12684944Y-15974460D02*
X12665896Y-15983984D01*
X12665896Y-15983984D02*
X12646848Y-15983984D01*
X12646848Y-15983984D02*
X12627801Y-15974460D01*
X12627801Y-15974460D02*
X12618277Y-15964936D01*
X12618277Y-15964936D02*
X12608753Y-15945888D01*
X12608753Y-15945888D02*
X12599229Y-15907793D01*
X12599229Y-15907793D02*
X12599229Y-15860174D01*
X12599229Y-15860174D02*
X12608753Y-15822079D01*
X12608753Y-15822079D02*
X12618277Y-15803031D01*
X12618277Y-15803031D02*
X12627801Y-15793508D01*
X12627801Y-15793508D02*
X12646848Y-15783984D01*
X12780182Y-15783984D02*
X12903991Y-15783984D01*
X12903991Y-15783984D02*
X12837325Y-15860174D01*
X12837325Y-15860174D02*
X12865896Y-15860174D01*
X12865896Y-15860174D02*
X12884944Y-15869698D01*
X12884944Y-15869698D02*
X12894467Y-15879222D01*
X12894467Y-15879222D02*
X12903991Y-15898269D01*
X12903991Y-15898269D02*
X12903991Y-15945888D01*
X12903991Y-15945888D02*
X12894467Y-15964936D01*
X12894467Y-15964936D02*
X12884944Y-15974460D01*
X12884944Y-15974460D02*
X12865896Y-15983984D01*
X12865896Y-15983984D02*
X12808753Y-15983984D01*
X12808753Y-15983984D02*
X12789706Y-15974460D01*
X12789706Y-15974460D02*
X12780182Y-15964936D01*
X13094467Y-15983984D02*
X12980182Y-15983984D01*
X13037325Y-15983984D02*
X13037325Y-15783984D01*
X13037325Y-15783984D02*
X13018277Y-15812555D01*
X13018277Y-15812555D02*
X12999229Y-15831603D01*
X12999229Y-15831603D02*
X12980182Y-15841127D01*
X13275420Y-15783984D02*
X13180182Y-15783984D01*
X13180182Y-15783984D02*
X13170658Y-15879222D01*
X13170658Y-15879222D02*
X13180182Y-15869698D01*
X13180182Y-15869698D02*
X13199229Y-15860174D01*
X13199229Y-15860174D02*
X13246848Y-15860174D01*
X13246848Y-15860174D02*
X13265896Y-15869698D01*
X13265896Y-15869698D02*
X13275420Y-15879222D01*
X13275420Y-15879222D02*
X13284944Y-15898269D01*
X13284944Y-15898269D02*
X13284944Y-15945888D01*
X13284944Y-15945888D02*
X13275420Y-15964936D01*
X13275420Y-15964936D02*
X13265896Y-15974460D01*
X13265896Y-15974460D02*
X13246848Y-15983984D01*
X13246848Y-15983984D02*
X13199229Y-15983984D01*
X13199229Y-15983984D02*
X13180182Y-15974460D01*
X13180182Y-15974460D02*
X13170658Y-15964936D01*
X13361134Y-15783984D02*
X13361134Y-15822079D01*
X13437325Y-15783984D02*
X13437325Y-15822079D01*
X13732563Y-16060174D02*
X13723039Y-16050650D01*
X13723039Y-16050650D02*
X13703991Y-16022079D01*
X13703991Y-16022079D02*
X13694468Y-16003031D01*
X13694468Y-16003031D02*
X13684944Y-15974460D01*
X13684944Y-15974460D02*
X13675420Y-15926841D01*
X13675420Y-15926841D02*
X13675420Y-15888746D01*
X13675420Y-15888746D02*
X13684944Y-15841127D01*
X13684944Y-15841127D02*
X13694468Y-15812555D01*
X13694468Y-15812555D02*
X13703991Y-15793508D01*
X13703991Y-15793508D02*
X13723039Y-15764936D01*
X13723039Y-15764936D02*
X13732563Y-15755412D01*
X13913515Y-15983984D02*
X13799229Y-15983984D01*
X13856372Y-15983984D02*
X13856372Y-15783984D01*
X13856372Y-15783984D02*
X13837325Y-15812555D01*
X13837325Y-15812555D02*
X13818277Y-15831603D01*
X13818277Y-15831603D02*
X13799229Y-15841127D01*
X14027801Y-15869698D02*
X14008753Y-15860174D01*
X14008753Y-15860174D02*
X13999229Y-15850650D01*
X13999229Y-15850650D02*
X13989706Y-15831603D01*
X13989706Y-15831603D02*
X13989706Y-15822079D01*
X13989706Y-15822079D02*
X13999229Y-15803031D01*
X13999229Y-15803031D02*
X14008753Y-15793508D01*
X14008753Y-15793508D02*
X14027801Y-15783984D01*
X14027801Y-15783984D02*
X14065896Y-15783984D01*
X14065896Y-15783984D02*
X14084944Y-15793508D01*
X14084944Y-15793508D02*
X14094468Y-15803031D01*
X14094468Y-15803031D02*
X14103991Y-15822079D01*
X14103991Y-15822079D02*
X14103991Y-15831603D01*
X14103991Y-15831603D02*
X14094468Y-15850650D01*
X14094468Y-15850650D02*
X14084944Y-15860174D01*
X14084944Y-15860174D02*
X14065896Y-15869698D01*
X14065896Y-15869698D02*
X14027801Y-15869698D01*
X14027801Y-15869698D02*
X14008753Y-15879222D01*
X14008753Y-15879222D02*
X13999229Y-15888746D01*
X13999229Y-15888746D02*
X13989706Y-15907793D01*
X13989706Y-15907793D02*
X13989706Y-15945888D01*
X13989706Y-15945888D02*
X13999229Y-15964936D01*
X13999229Y-15964936D02*
X14008753Y-15974460D01*
X14008753Y-15974460D02*
X14027801Y-15983984D01*
X14027801Y-15983984D02*
X14065896Y-15983984D01*
X14065896Y-15983984D02*
X14084944Y-15974460D01*
X14084944Y-15974460D02*
X14094468Y-15964936D01*
X14094468Y-15964936D02*
X14103991Y-15945888D01*
X14103991Y-15945888D02*
X14103991Y-15907793D01*
X14103991Y-15907793D02*
X14094468Y-15888746D01*
X14094468Y-15888746D02*
X14084944Y-15879222D01*
X14084944Y-15879222D02*
X14065896Y-15869698D01*
X14227801Y-15783984D02*
X14246849Y-15783984D01*
X14246849Y-15783984D02*
X14265896Y-15793508D01*
X14265896Y-15793508D02*
X14275420Y-15803031D01*
X14275420Y-15803031D02*
X14284944Y-15822079D01*
X14284944Y-15822079D02*
X14294468Y-15860174D01*
X14294468Y-15860174D02*
X14294468Y-15907793D01*
X14294468Y-15907793D02*
X14284944Y-15945888D01*
X14284944Y-15945888D02*
X14275420Y-15964936D01*
X14275420Y-15964936D02*
X14265896Y-15974460D01*
X14265896Y-15974460D02*
X14246849Y-15983984D01*
X14246849Y-15983984D02*
X14227801Y-15983984D01*
X14227801Y-15983984D02*
X14208753Y-15974460D01*
X14208753Y-15974460D02*
X14199229Y-15964936D01*
X14199229Y-15964936D02*
X14189706Y-15945888D01*
X14189706Y-15945888D02*
X14180182Y-15907793D01*
X14180182Y-15907793D02*
X14180182Y-15860174D01*
X14180182Y-15860174D02*
X14189706Y-15822079D01*
X14189706Y-15822079D02*
X14199229Y-15803031D01*
X14199229Y-15803031D02*
X14208753Y-15793508D01*
X14208753Y-15793508D02*
X14227801Y-15783984D01*
X14532563Y-15983984D02*
X14532563Y-15783984D01*
X14618277Y-15983984D02*
X14618277Y-15879222D01*
X14618277Y-15879222D02*
X14608753Y-15860174D01*
X14608753Y-15860174D02*
X14589706Y-15850650D01*
X14589706Y-15850650D02*
X14561134Y-15850650D01*
X14561134Y-15850650D02*
X14542087Y-15860174D01*
X14542087Y-15860174D02*
X14532563Y-15869698D01*
X14742087Y-15983984D02*
X14723039Y-15974460D01*
X14723039Y-15974460D02*
X14713515Y-15964936D01*
X14713515Y-15964936D02*
X14703991Y-15945888D01*
X14703991Y-15945888D02*
X14703991Y-15888746D01*
X14703991Y-15888746D02*
X14713515Y-15869698D01*
X14713515Y-15869698D02*
X14723039Y-15860174D01*
X14723039Y-15860174D02*
X14742087Y-15850650D01*
X14742087Y-15850650D02*
X14770658Y-15850650D01*
X14770658Y-15850650D02*
X14789706Y-15860174D01*
X14789706Y-15860174D02*
X14799230Y-15869698D01*
X14799230Y-15869698D02*
X14808753Y-15888746D01*
X14808753Y-15888746D02*
X14808753Y-15945888D01*
X14808753Y-15945888D02*
X14799230Y-15964936D01*
X14799230Y-15964936D02*
X14789706Y-15974460D01*
X14789706Y-15974460D02*
X14770658Y-15983984D01*
X14770658Y-15983984D02*
X14742087Y-15983984D01*
X14923039Y-15983984D02*
X14903991Y-15974460D01*
X14903991Y-15974460D02*
X14894468Y-15955412D01*
X14894468Y-15955412D02*
X14894468Y-15783984D01*
X15075420Y-15974460D02*
X15056372Y-15983984D01*
X15056372Y-15983984D02*
X15018277Y-15983984D01*
X15018277Y-15983984D02*
X14999230Y-15974460D01*
X14999230Y-15974460D02*
X14989706Y-15955412D01*
X14989706Y-15955412D02*
X14989706Y-15879222D01*
X14989706Y-15879222D02*
X14999230Y-15860174D01*
X14999230Y-15860174D02*
X15018277Y-15850650D01*
X15018277Y-15850650D02*
X15056372Y-15850650D01*
X15056372Y-15850650D02*
X15075420Y-15860174D01*
X15075420Y-15860174D02*
X15084944Y-15879222D01*
X15084944Y-15879222D02*
X15084944Y-15898269D01*
X15084944Y-15898269D02*
X14989706Y-15917317D01*
X15161134Y-15974460D02*
X15180182Y-15983984D01*
X15180182Y-15983984D02*
X15218277Y-15983984D01*
X15218277Y-15983984D02*
X15237325Y-15974460D01*
X15237325Y-15974460D02*
X15246849Y-15955412D01*
X15246849Y-15955412D02*
X15246849Y-15945888D01*
X15246849Y-15945888D02*
X15237325Y-15926841D01*
X15237325Y-15926841D02*
X15218277Y-15917317D01*
X15218277Y-15917317D02*
X15189706Y-15917317D01*
X15189706Y-15917317D02*
X15170658Y-15907793D01*
X15170658Y-15907793D02*
X15161134Y-15888746D01*
X15161134Y-15888746D02*
X15161134Y-15879222D01*
X15161134Y-15879222D02*
X15170658Y-15860174D01*
X15170658Y-15860174D02*
X15189706Y-15850650D01*
X15189706Y-15850650D02*
X15218277Y-15850650D01*
X15218277Y-15850650D02*
X15237325Y-15860174D01*
X15313515Y-16060174D02*
X15323039Y-16050650D01*
X15323039Y-16050650D02*
X15342087Y-16022079D01*
X15342087Y-16022079D02*
X15351611Y-16003031D01*
X15351611Y-16003031D02*
X15361134Y-15974460D01*
X15361134Y-15974460D02*
X15370658Y-15926841D01*
X15370658Y-15926841D02*
X15370658Y-15888746D01*
X15370658Y-15888746D02*
X15361134Y-15841127D01*
X15361134Y-15841127D02*
X15351611Y-15812555D01*
X15351611Y-15812555D02*
X15342087Y-15793508D01*
X15342087Y-15793508D02*
X15323039Y-15764936D01*
X15323039Y-15764936D02*
X15313515Y-15755412D01*
M02*
