%TF.GenerationSoftware,KiCad,Pcbnew,9.0.5-1.fc42*%
%TF.CreationDate,2025-11-09T16:45:22+08:00*%
%TF.ProjectId,XTra-RAM,58547261-2d52-4414-9d2e-6b696361645f,rev?*%
%TF.SameCoordinates,Original*%
%TF.FileFunction,Drillmap*%
%TF.FilePolarity,Positive*%
%FSLAX45Y45*%
G04 Gerber Fmt 4.5, Leading zero omitted, Abs format (unit mm)*
G04 Created by KiCad (PCBNEW 9.0.5-1.fc42) date 2025-11-09 16:45:22*
%MOMM*%
%LPD*%
G01*
G04 APERTURE LIST*
%ADD10C,0.050000*%
%ADD11C,0.200000*%
G04 APERTURE END LIST*
D10*
X11721877Y-13971671D02*
G75*
G02*
X11921669Y-14171671I-217J-200009D01*
G01*
X12021663Y-14986000D02*
G75*
G02*
X11921660Y-14886000I-3J100000D01*
G01*
X19866000Y-5080000D02*
G75*
G02*
X20066000Y-5280000I0J-200000D01*
G01*
X11921663Y-14171671D02*
X11921663Y-14886000D01*
X19866000Y-5080000D02*
X10360000Y-5080000D01*
X11721877Y-13971671D02*
X10359786Y-13970214D01*
X20066000Y-14886000D02*
G75*
G02*
X19966000Y-14986000I-100000J0D01*
G01*
X10359786Y-13970214D02*
G75*
G02*
X10159996Y-13770214I214J200004D01*
G01*
X20066000Y-14886000D02*
X20066000Y-5280000D01*
X10160000Y-5280000D02*
X10160000Y-13770214D01*
X10160000Y-5280000D02*
G75*
G02*
X10360000Y-5080000I200000J0D01*
G01*
X12021663Y-14986000D02*
X19966000Y-14986000D01*
D11*
X10418277Y-15299984D02*
X10418277Y-15099984D01*
X10418277Y-15099984D02*
X10465896Y-15099984D01*
X10465896Y-15099984D02*
X10494467Y-15109508D01*
X10494467Y-15109508D02*
X10513515Y-15128555D01*
X10513515Y-15128555D02*
X10523039Y-15147603D01*
X10523039Y-15147603D02*
X10532563Y-15185698D01*
X10532563Y-15185698D02*
X10532563Y-15214269D01*
X10532563Y-15214269D02*
X10523039Y-15252365D01*
X10523039Y-15252365D02*
X10513515Y-15271412D01*
X10513515Y-15271412D02*
X10494467Y-15290460D01*
X10494467Y-15290460D02*
X10465896Y-15299984D01*
X10465896Y-15299984D02*
X10418277Y-15299984D01*
X10618277Y-15299984D02*
X10618277Y-15166650D01*
X10618277Y-15204746D02*
X10627801Y-15185698D01*
X10627801Y-15185698D02*
X10637324Y-15176174D01*
X10637324Y-15176174D02*
X10656372Y-15166650D01*
X10656372Y-15166650D02*
X10675420Y-15166650D01*
X10742086Y-15299984D02*
X10742086Y-15166650D01*
X10742086Y-15099984D02*
X10732563Y-15109508D01*
X10732563Y-15109508D02*
X10742086Y-15119031D01*
X10742086Y-15119031D02*
X10751610Y-15109508D01*
X10751610Y-15109508D02*
X10742086Y-15099984D01*
X10742086Y-15099984D02*
X10742086Y-15119031D01*
X10865896Y-15299984D02*
X10846848Y-15290460D01*
X10846848Y-15290460D02*
X10837324Y-15271412D01*
X10837324Y-15271412D02*
X10837324Y-15099984D01*
X10970658Y-15299984D02*
X10951610Y-15290460D01*
X10951610Y-15290460D02*
X10942086Y-15271412D01*
X10942086Y-15271412D02*
X10942086Y-15099984D01*
X11199229Y-15299984D02*
X11199229Y-15099984D01*
X11199229Y-15099984D02*
X11265896Y-15242841D01*
X11265896Y-15242841D02*
X11332562Y-15099984D01*
X11332562Y-15099984D02*
X11332562Y-15299984D01*
X11513515Y-15299984D02*
X11513515Y-15195222D01*
X11513515Y-15195222D02*
X11503991Y-15176174D01*
X11503991Y-15176174D02*
X11484943Y-15166650D01*
X11484943Y-15166650D02*
X11446848Y-15166650D01*
X11446848Y-15166650D02*
X11427801Y-15176174D01*
X11513515Y-15290460D02*
X11494467Y-15299984D01*
X11494467Y-15299984D02*
X11446848Y-15299984D01*
X11446848Y-15299984D02*
X11427801Y-15290460D01*
X11427801Y-15290460D02*
X11418277Y-15271412D01*
X11418277Y-15271412D02*
X11418277Y-15252365D01*
X11418277Y-15252365D02*
X11427801Y-15233317D01*
X11427801Y-15233317D02*
X11446848Y-15223793D01*
X11446848Y-15223793D02*
X11494467Y-15223793D01*
X11494467Y-15223793D02*
X11513515Y-15214269D01*
X11608753Y-15166650D02*
X11608753Y-15366650D01*
X11608753Y-15176174D02*
X11627801Y-15166650D01*
X11627801Y-15166650D02*
X11665896Y-15166650D01*
X11665896Y-15166650D02*
X11684943Y-15176174D01*
X11684943Y-15176174D02*
X11694467Y-15185698D01*
X11694467Y-15185698D02*
X11703991Y-15204746D01*
X11703991Y-15204746D02*
X11703991Y-15261888D01*
X11703991Y-15261888D02*
X11694467Y-15280936D01*
X11694467Y-15280936D02*
X11684943Y-15290460D01*
X11684943Y-15290460D02*
X11665896Y-15299984D01*
X11665896Y-15299984D02*
X11627801Y-15299984D01*
X11627801Y-15299984D02*
X11608753Y-15290460D01*
X11789705Y-15280936D02*
X11799229Y-15290460D01*
X11799229Y-15290460D02*
X11789705Y-15299984D01*
X11789705Y-15299984D02*
X11780182Y-15290460D01*
X11780182Y-15290460D02*
X11789705Y-15280936D01*
X11789705Y-15280936D02*
X11789705Y-15299984D01*
X11789705Y-15176174D02*
X11799229Y-15185698D01*
X11799229Y-15185698D02*
X11789705Y-15195222D01*
X11789705Y-15195222D02*
X11780182Y-15185698D01*
X11780182Y-15185698D02*
X11789705Y-15176174D01*
X11789705Y-15176174D02*
X11789705Y-15195222D01*
M02*
